<svg width="20" height="20" viewBox="0 0 20 20" fill="none" xmlns="http://www.w3.org/2000/svg">
<path fill-rule="evenodd" clip-rule="evenodd" d="M2.47852 4.97884C2.47852 4.5186 2.85161 4.14551 3.31185 4.14551H16.6452C17.1054 4.14551 17.4785 4.5186 17.4785 4.97884C17.4785 5.43908 17.1054 5.81217 16.6452 5.81217H3.31185C2.85161 5.81217 2.47852 5.43908 2.47852 4.97884ZM2.47852 9.97884C2.47852 9.5186 2.85161 9.14551 3.31185 9.14551H16.6452C17.1054 9.14551 17.4785 9.5186 17.4785 9.97884C17.4785 10.4391 17.1054 10.8122 16.6452 10.8122H3.31185C2.85161 10.8122 2.47852 10.4391 2.47852 9.97884ZM3.31185 14.1455C2.85161 14.1455 2.47852 14.5186 2.47852 14.9788C2.47852 15.4391 2.85161 15.8122 3.31185 15.8122H16.6452C17.1054 15.8122 17.4785 15.4391 17.4785 14.9788C17.4785 14.5186 17.1054 14.1455 16.6452 14.1455H3.31185Z" fill="black"/>
</svg>
