<?xml version="1.0" standalone="no"?>
<!DOCTYPE svg PUBLIC "-//W3C//DTD SVG 1.1//EN" "http://www.w3.org/Graphics/SVG/1.1/DTD/svg11.dtd" >
<svg xmlns="http://www.w3.org/2000/svg">
  <metadata>Created by iconfont</metadata>
  <defs>
  <font id="iconfont" horiz-adv-x="1024">
    <font-face
      font-family="iconfont"
      font-weight="400"
      font-stretch="normal"
      units-per-em="1024"
      ascent="896"
      descent="-128"
    />
      <missing-glyph />
      
      <glyph glyph-name="fuzai" unicode="&#58952;" d="M535.68 547.498667l384-256a42.666667 42.666667 0 0 0 0-70.997334l-384-256a42.666667 42.666667 0 0 0-47.36 0l-384 256a42.666667 42.666667 0 0 0 0 70.997334l384 256a42.666667 42.666667 0 0 0 47.36 0zM535.68 803.498667l384-256a42.666667 42.666667 0 0 0 0-70.997334l-384-256a42.666667 42.666667 0 0 0-47.36 0l-384 256a42.666667 42.666667 0 0 0 0 70.997334l384 256a42.666667 42.666667 0 0 0 47.36 0z"  horiz-adv-x="1024" />
      
      <glyph glyph-name="xinjian" unicode="&#58953;" d="M0 896m0 0l1024 0q0 0 0 0l0-1024q0 0 0 0l-1024 0q0 0 0 0l0 1024q0 0 0 0ZM512 833.984A450.176 450.176 0 0 1 62.016 384 450.176 450.176 0 0 1 512-65.984 450.176 450.176 0 0 1 961.984 384 450.176 450.176 0 0 1 512 833.984z m213.312-482.688H552.704v-172.608a38.72 38.72 0 0 0-38.272-38.272 38.72 38.72 0 0 0-38.208 38.272V351.296H303.616a38.72 38.72 0 0 0-38.272 38.208c0 20.736 17.472 38.208 38.272 38.208H476.16V600.32c0 20.8 17.472 38.272 38.208 38.272 20.736 0 38.272-17.472 38.272-38.272v-172.608h172.608c20.736 0 38.208-17.472 38.208-38.208a38.016 38.016 0 0 0-38.208-38.208z"  horiz-adv-x="1024" />
      
      <glyph glyph-name="shanchu" unicode="&#58957;" d="M511.936008 896a511.936008 511.936008 0 1 1 0.127984-1024A511.936008 511.936008 0 0 1 511.936008 896z m209.893763-653.99825c8.702912-8.63892 14.07824-20.605424 14.07824-33.787777v-0.127984a47.994001 47.994001 0 0 0-81.909761-33.91576L511.936008 316.232471l-141.99825-142.062242a47.802025 47.802025 0 0 0-33.915761-14.07824H335.958005a47.994001 47.994001 0 0 0-47.994001 47.994v0.127984c0 13.182352 5.375328 25.148856 14.078241 33.787777L444.104487 384.063992 302.042245 526.126234a47.994001 47.994001 0 0 0 33.91576 81.909762h0.127984c13.246344 0 25.212848-5.375328 33.915761-14.078241L511.936008 451.895513l142.062242 142.062242a47.994001 47.994001 0 0 0 81.909761-33.91576v-0.127984a47.610049 47.610049 0 0 0-14.07824-33.915761L579.767529 384.063992l142.062242-142.062242z"  horiz-adv-x="1024" />
      
      <glyph glyph-name="yunying" unicode="&#58958;" d="M68.608 148.352h166.528v-209.792H68.608v209.792z m253.888 215.04h170.688v-424.832H322.496V363.392z m253.952-81.92h169.28v-342.912H576.448V281.472z m253.888 208.128h170.624v-551.04h-170.624V489.6zM22.848 356.352l395.456 363.52 226.944-222.912 214.4 249.344-77.696 81.792h219.2v-212.096l-76.672 78.976-279.36-338.048-229.312 235.84-168.96-157.376-168.96-157.312-55.04 78.272z"  horiz-adv-x="1024" />
      
      <glyph glyph-name="bianji" unicode="&#58959;" d="M962.944 378.432q0-11.2-0.512-22.4-0.576-11.136-1.6-22.272-1.088-11.136-2.688-22.144-1.664-11.072-3.776-22.08-2.176-10.88-4.8-21.76-2.688-10.88-5.888-21.568-3.2-10.688-6.912-21.248-3.648-10.496-7.872-20.8-4.224-10.368-8.96-20.48-4.672-10.112-9.856-19.968-5.12-9.856-10.816-19.392-5.632-9.6-11.712-18.88-6.144-9.344-12.672-18.304-6.528-8.96-13.504-17.6-7.04-8.64-14.4-16.96t-15.104-16.192q-7.808-7.872-15.936-15.36-8.128-7.552-16.64-14.656-8.512-7.04-17.28-13.696-8.896-6.72-17.984-12.928-9.152-6.208-18.56-11.904-9.472-5.76-19.136-11.072-9.664-5.248-19.648-10.048-9.92-4.736-20.096-9.024-10.112-4.288-20.48-8.064-10.304-3.776-20.864-7.04-10.496-3.2-21.12-5.888-10.688-2.752-21.504-4.928-10.752-2.176-21.632-3.84-10.88-1.6-21.76-2.688-11.008-1.152-21.952-1.664-11.008-0.576-21.952-0.576-11.008 0-21.952 0.576-11.008 0.512-21.952 1.664-10.88 1.088-21.76 2.688-10.88 1.664-21.696 3.84-10.752 2.176-21.44 4.928-10.624 2.688-21.12 5.952-10.56 3.2-20.928 7.04-10.304 3.712-20.48 8t-20.096 9.024q-9.92 4.8-19.584 10.048-9.728 5.312-19.2 11.072-9.344 5.76-18.56 11.904-9.088 6.208-17.92 12.928-8.832 6.656-17.28 13.696-8.512 7.104-16.64 14.592-8.192 7.552-16 15.424-7.68 7.936-15.104 16.192-7.36 8.32-14.336 16.96t-13.504 17.6q-6.592 8.96-12.672 18.304-6.08 9.28-11.776 18.88-5.632 9.6-10.816 19.392-5.12 9.856-9.856 19.968t-8.96 20.48q-4.16 10.304-7.872 20.8-3.712 10.56-6.912 21.248-3.2 10.688-5.824 21.568-2.688 10.88-4.8 21.76-2.176 11.008-3.84 22.08-1.536 11.008-2.624 22.144t-1.6 22.272q-0.576 11.2-0.576 22.4 0 11.136 0.576 22.336 0.512 11.136 1.6 22.272t2.688 22.208q1.6 11.008 3.776 22.016 2.112 10.944 4.8 21.76 2.688 10.88 5.824 21.568 3.2 10.688 6.912 21.248 3.712 10.496 7.936 20.8 4.16 10.368 8.896 20.48 4.672 10.112 9.856 19.968t10.88 19.456q5.632 9.6 11.712 18.88t12.672 18.24q6.528 8.96 13.44 17.6 7.04 8.64 14.4 16.96t15.168 16.192q7.744 7.872 15.872 15.36 8.192 7.552 16.64 14.656 8.512 7.04 17.344 13.76 8.832 6.656 17.92 12.8 9.216 6.272 18.56 11.968 9.472 5.76 19.2 11.072 9.664 5.248 19.584 10.048 9.92 4.736 20.096 9.024 10.176 4.288 20.48 8.064 10.368 3.776 20.864 7.04 10.56 3.2 21.184 5.952 10.688 2.688 21.44 4.864 10.816 2.176 21.632 3.84 10.88 1.6 21.824 2.752 10.944 1.088 21.952 1.6 10.944 0.576 21.952 0.576 10.944 0 21.952-0.576 10.944-0.512 21.888-1.6 10.944-1.152 21.824-2.752 10.88-1.664 21.632-3.84 10.816-2.176 21.44-4.864 10.688-2.752 21.184-6.016 10.56-3.2 20.864-7.04 10.368-3.712 20.48-8 10.24-4.288 20.096-9.024 9.984-4.8 19.648-10.048 9.664-5.312 19.136-11.072 9.408-5.76 18.56-11.904 9.152-6.208 17.92-12.864 8.832-6.656 17.344-13.76t16.64-14.592q8.128-7.552 15.936-15.424 7.744-7.936 15.104-16.192 7.424-8.32 14.4-16.96t13.44-17.6q6.592-8.96 12.736-18.24 6.08-9.344 11.712-18.88 5.632-9.6 10.88-19.456 5.12-9.856 9.856-19.968 4.672-10.112 8.896-20.48 4.224-10.24 7.872-20.8 3.712-10.56 6.912-21.248 3.2-10.688 5.888-21.568 2.624-10.816 4.8-21.76 2.112-11.008 3.776-22.016 1.6-11.072 2.688-22.208 1.024-11.136 1.6-22.272 0.512-11.2 0.512-22.4zM579.584 701.248L258.112 376.32v-187.456q1.408-63.552 65.472-63.552h191.232l320.832 319.616-256 256.384zM573.696 648.96L310.528 382.976v-153.408q1.152-52.032 53.568-52.032h156.544l262.592 261.568-209.536 209.92zM419.2 219.52l-69.44 63.936s7.872-64 69.44-64z"  horiz-adv-x="1024" />
      
      <glyph glyph-name="zonglan" unicode="&#58943;" d="M137.28 706.176h746.88v-161.792l53.248-53.952c26.88-27.2 41.28-46.656 53.312-53.952v377.6h-960v-756.16h373.44l-53.312 107.904H137.28V706.24zM243.84 598.336h426.752v-107.904H243.84V598.4z m0-270.208V436.032h213.632l-53.312-107.904H243.84zM670.528 436.032c-124.288-9.28-213.12-114.688-213.12-243.008 0-134.144 107.52-242.944 240-242.944 126.72 0 230.912 90.368 240 215.744h-266.88V436.032zM723.84 489.92v-270.144h266.88c0 146.24-122.368 270.144-266.88 270.144z"  horiz-adv-x="1024" />
      
      <glyph glyph-name="jiqunguanli" unicode="&#58944;" d="M311.232 256c19.264 0 34.88 15.616 34.88 34.88v60.928h157.696a34.88 34.88 0 0 1 0 69.376H345.92v60.8c0 19.2-15.616 34.816-34.816 34.816h-60.736V670.08h236.8a34.88 34.88 0 1 1 0 69.376H215.68c-19.2 0-34.816-15.616-34.816-34.816v-188.032h-60.672c-19.2 0-34.88-15.552-34.88-34.816v-191.104c0-19.264 15.616-34.88 34.88-34.816h60.992v-188.672c0-19.2 15.552-34.816 34.816-34.816h271.232a34.88 34.88 0 1 1 0 69.376H250.368V256h60.864zM503.744-59.712a34.88 34.88 0 0 0-34.816 34.88v138.688c0 19.2 15.616 34.816 34.816 34.816h406.208c19.2 0 34.816-15.552 34.816-34.816v-138.752c0-19.2-15.616-34.816-34.816-34.816H503.744z m0 342.016a34.816 34.816 0 0 0-34.816 34.816V455.68c0 19.2 15.616 34.88 34.816 34.88h406.208c19.2 0 34.816-15.616 34.816-34.88v-138.56c0-19.2-15.616-34.752-34.816-34.816H503.744z m0 320.256a34.816 34.816 0 0 0-34.816 34.816V775.808c0 19.2 15.616 34.88 34.816 34.88h406.208c19.2 0 34.816-15.616 34.816-34.88v-138.752c0-19.2-15.552-34.816-34.816-34.88l-406.208 0.384z"  horiz-adv-x="1024" />
      
      <glyph glyph-name="xiangmuguanli" unicode="&#58945;" d="M199.104-42.688A42.688 42.688 0 0 0 156.48 0V768a42.688 42.688 0 1 0 85.312 0v-768a42.688 42.688 0 0 0-42.688-42.688zM514.88 810.688A42.688 42.688 0 0 1 472.192 768v-768a42.688 42.688 0 0 1 85.312 0V768a42.688 42.688 0 0 1-42.624 42.688zM824.896-42.688a42.688 42.688 0 0 1 42.624 42.688V768a42.688 42.688 0 1 1-85.312 0v-768c0-23.552 19.072-42.688 42.688-42.688zM199.104 327.104a113.792 113.792 0 1 0 0-227.584 113.792 113.792 0 0 0 0 227.584z m314.24 85.376A113.792 113.792 0 1 1 517.888 640a113.792 113.792 0 0 1-4.48-227.52zM824.896 327.104q5.568 0 11.136-0.512 5.568-0.576 11.008-1.664 5.504-1.088 10.88-2.688 5.312-1.664 10.496-3.776 5.12-2.112 10.112-4.8 4.928-2.56 9.6-5.76 4.608-3.072 8.96-6.592 4.288-3.584 8.256-7.488 3.968-3.968 7.488-8.32 3.52-4.288 6.656-8.96 3.072-4.672 5.76-9.6 2.56-4.928 4.736-10.048 2.176-5.184 3.776-10.56 1.6-5.312 2.688-10.816 1.088-5.504 1.664-11.008 0.576-5.568 0.576-11.2 0-5.568-0.576-11.136t-1.664-11.072q-1.088-5.44-2.688-10.816-1.6-5.312-3.776-10.496-2.112-5.12-4.736-10.112-2.688-4.928-5.76-9.6-3.136-4.608-6.656-8.96-3.52-4.288-7.488-8.256-3.968-3.968-8.32-7.488-4.288-3.584-8.96-6.656-4.608-3.136-9.6-5.76-4.864-2.56-10.048-4.736-5.12-2.176-10.496-3.84-5.376-1.536-10.88-2.688-5.44-1.088-11.008-1.6-5.568-0.576-11.136-0.576-5.632 0-11.2 0.576-5.568 0.512-11.008 1.6-5.504 1.152-10.88 2.752-5.312 1.6-10.496 3.776-5.12 2.112-10.112 4.736-4.928 2.624-9.6 5.76-4.608 3.072-8.96 6.656-4.288 3.52-8.256 7.488-3.904 3.968-7.488 8.32-3.52 4.288-6.656 8.96-3.072 4.608-5.76 9.6-2.56 4.864-4.736 10.048-2.112 5.12-3.776 10.496-1.6 5.376-2.688 10.88-1.088 5.44-1.664 11.008-0.512 5.568-0.512 11.136 0 5.632 0.512 11.2 0.576 5.504 1.664 11.008t2.688 10.88q1.664 5.312 3.776 10.496 2.112 5.12 4.8 10.048 2.56 4.928 5.76 9.6 3.072 4.672 6.592 8.96 3.584 4.352 7.488 8.32 3.968 3.904 8.32 7.488 4.288 3.52 8.96 6.656 4.608 3.072 9.6 5.76 4.864 2.56 10.048 4.736 5.12 2.112 10.496 3.776 5.376 1.6 10.88 2.688 5.44 1.088 11.008 1.664 5.568 0.512 11.2 0.512z"  horiz-adv-x="1024" />
      
      <glyph glyph-name="xuniziyuan" unicode="&#58946;" d="M106.688 436.48c0 34.496 27.904 62.4 62.336 62.4H855.04c34.432 0 62.336-27.904 62.336-62.336v-124.736a62.4 62.4 0 0 0-62.336-62.4H168.96a62.4 62.4 0 0 0-62.336 62.4V436.48z m0-311.744c0 34.432 27.904 62.336 62.336 62.336H855.04c34.432 0 62.336-27.904 62.336-62.336V0a62.336 62.336 0 0 0-62.336-62.336H168.96A62.4 62.4 0 0 0 106.688 0v124.736zM169.024 810.688a62.336 62.336 0 0 1-62.336-62.4v-124.736c0-34.432 27.904-62.336 62.336-62.336H855.04a62.336 62.336 0 0 1 62.336 62.336V748.288a62.336 62.336 0 0 1-62.336 62.4H168.96z m436.48-77.952h218.304c17.216 0 31.168-13.952 31.168-31.168v-31.168a31.168 31.168 0 0 0-31.168-31.232h-218.24a31.168 31.168 0 0 0-31.168 31.168v31.168c0 17.28 13.888 31.232 31.104 31.232z"  horiz-adv-x="1024" />
      
      <glyph glyph-name="jiqunliebiao" unicode="&#58947;" d="M832 755.2h-89.6c-25.6 0-44.8-19.2-44.8-44.8v-89.6c0-25.6 19.2-44.8 44.8-44.8H832c25.6 0 44.8 19.2 44.8 44.8V704c6.4 25.6-19.2 51.2-44.8 51.2z m-275.2 0H467.2c-25.6 0-44.8-25.6-44.8-51.2v-89.6c0-25.6 19.2-44.8 44.8-44.8h89.6c25.6 0 44.8 19.2 44.8 44.8V704c0 25.6-19.2 51.2-44.8 51.2z m-275.2 0H192c-25.6 0-51.2-25.6-51.2-51.2v-89.6c0-25.6 19.2-44.8 44.8-44.8h89.6c25.6 0 44.8 19.2 44.8 44.8V704c6.4 25.6-12.8 51.2-38.4 51.2zM832 473.6h-89.6c-25.6 0-44.8-19.2-44.8-44.8v-89.6c0-25.6 19.2-44.8 44.8-44.8H832c25.6 0 44.8 19.2 44.8 44.8V428.8c6.4 25.6-19.2 44.8-44.8 44.8z m-275.2 0H467.2c-25.6 0-44.8-19.2-44.8-44.8v-89.6c0-25.6 19.2-44.8 44.8-44.8h89.6c25.6 0 44.8 19.2 44.8 44.8V428.8c0 25.6-19.2 44.8-44.8 44.8z m-275.2 0H192c-25.6 0-44.8-19.2-44.8-44.8v-89.6c0-25.6 19.2-44.8 44.8-44.8h89.6c25.6 0 44.8 19.2 44.8 44.8V428.8c0 25.6-19.2 44.8-44.8 44.8z m550.4-275.2h-89.6c-25.6 0-44.8-19.2-44.8-44.8V64c0-25.6 19.2-44.8 44.8-44.8H832c25.6 0 44.8 19.2 44.8 44.8v89.6c6.4 25.6-19.2 44.8-44.8 44.8z m-275.2 0H467.2c-25.6 0-44.8-19.2-44.8-44.8V64c0-25.6 19.2-44.8 44.8-44.8h89.6c25.6 0 44.8 19.2 44.8 44.8v89.6c0 25.6-19.2 44.8-44.8 44.8z m-275.2 0H192c-25.6 0-44.8-19.2-44.8-44.8V64c0-25.6 19.2-44.8 44.8-44.8h89.6c25.6 0 44.8 19.2 44.8 44.8v89.6c0 25.6-19.2 44.8-44.8 44.8z"  horiz-adv-x="1024" />
      
      <glyph glyph-name="yunweiguanli" unicode="&#58948;" d="M865.472 558.72l45.696 46.208c25.216 25.408 55.232 8.128 47.616-37.568a229.248 229.248 0 0 0-96.128-153.92 230.08 230.08 0 0 0-178.048-35.584l-384.576-385.92a126.72 126.72 0 0 0-88.512-36.608 123.328 123.328 0 0 0-95.168 43.648c-42.368 49.28-39.488 125.44 6.656 170.688L507.52 555.648a232.064 232.064 0 0 0 62.784 210.816 224.768 224.768 0 0 0 126.656 64.448c45.632 7.104 62.336-22.848 37.12-48.256l-45.696-46.208a43.136 43.136 0 0 1-4.352-4.48 90.944 90.944 0 0 0-2.304-2.56c-42.368-49.28-39.552-125.44 6.656-170.688 48.512-49.28 128-49.28 177.024 0h0.064zM182.464 50.816c16.64-16.256 42.368-16.256 59.072 0l1.92 1.984a41.984 41.984 0 0 1-60.992 57.408l-2.368-2.56a42.56 42.56 0 0 1 2.368-56.832zM199.68 596.8l144.64-145.28 59.52 59.52-145.152 145.216-32.384 62.464-103.296 74.176L64 733.44l73.792-103.616 61.824-33.024h0.064z m484.48-308.352a19.84 19.84 0 0 1-14.72 6.144 19.84 19.84 0 0 1-14.72-6.144l-88.576-88.896a21.056 21.056 0 0 1-0.96-28.416c0.512-0.512 0.512-1.024 0.96-1.024l208.96-209.728c33.28-32.512 84.672-32.512 118.016 0 30.912 29.952 32.832 80.704 4.736 113.728-1.408 1.536-2.816 3.584-4.736 5.12l-208.96 209.28v-0.064z"  horiz-adv-x="1024" />
      
      <glyph glyph-name="liangyihunpaiyunguan" unicode="&#58949;" d="M917.312 448v-352.768L480-93.632 42.688 95.232V683.264L480 853.312l437.312-170.048v-65.792H792.32L480 738.88l-330.688-128.64v-444.864L480 22.528l330.688 142.848V448h-85.376V554.688h277.376V448h-85.376zM234.688 554.688h106.624v-400.896l-106.624 47.104V554.688z m320-384a128 128 0 1 0 0 256 128 128 0 0 0 0-256z"  horiz-adv-x="1024" />
      
      <glyph glyph-name="yingyongzhongxin" unicode="&#58950;" d="M128 281.6a51.2 51.2 0 0 0 51.2 51.2h230.4a51.2 51.2 0 0 0 51.2-51.2v-230.4a51.2 51.2 0 0 0-51.2-51.2H179.2a51.2 51.2 0 0 0-51.2 51.2V281.6z m435.2 0a51.2 51.2 0 0 0 51.2 51.2h230.4a51.2 51.2 0 0 0 51.2-51.2v-230.4a51.2 51.2 0 0 0-51.2-51.2H614.4a51.2 51.2 0 0 0-51.2 51.2V281.6zM128 716.8a51.2 51.2 0 0 0 51.2 51.2h230.4a51.2 51.2 0 0 0 51.2-51.2v-230.4a51.2 51.2 0 0 0-51.2-51.2H179.2a51.2 51.2 0 0 0-51.2 51.2V716.8z m557.504 91.776a51.2 51.2 0 0 0 72.384 0l162.944-162.88a51.2 51.2 0 0 0 0-72.448l-162.944-162.88a51.2 51.2 0 0 0-72.32 0L522.56 573.248a51.2 51.2 0 0 0 0 72.448l162.88 162.88h0.064z"  horiz-adv-x="1024" />
      
      <glyph glyph-name="xiangmuliebiao" unicode="&#58951;" d="M187.392 825.344q28.672 0 48.64-19.456T256 757.76v-52.224q0-28.672-19.968-48.64t-48.64-19.968H133.12q-27.648 0-47.616 19.968t-19.968 48.64V757.76q0 28.672 19.968 48.128t47.616 19.456h54.272z m702.464 0q27.648 0 47.616-19.456t19.968-48.128v-52.224q0-28.672-19.968-48.64t-47.616-19.968H452.608q-28.672 0-48.64 19.968T384 705.536V757.76q0 28.672 19.968 48.128t48.64 19.456h437.248zM187.392 506.88q28.672 0 48.64-19.968t19.968-48.64v-52.224q0-27.648-19.968-47.616t-48.64-19.968H133.12q-27.648 0-47.616 19.968t-19.968 47.616v52.224q0 28.672 19.968 48.64t47.616 19.968h54.272z m702.464 0q27.648 0 47.616-19.968t19.968-48.64v-52.224q0-27.648-19.968-47.616t-47.616-19.968H452.608q-28.672 0-48.64 19.968T384 386.048v52.224q0 28.672 19.968 48.64t48.64 19.968h437.248zM187.392 187.392q28.672 0 48.64-19.968t19.968-47.616v-52.224q0-28.672-19.968-48.64t-48.64-19.968H133.12q-27.648 0-47.616 19.968t-19.968 48.64v52.224q0 27.648 19.968 47.616t47.616 19.968h54.272z m702.464 0q27.648 0 47.616-19.968t19.968-47.616v-52.224q0-28.672-19.968-48.64t-47.616-19.968H452.608q-28.672 0-48.64 19.968T384 67.584v52.224q0 27.648 19.968 47.616t48.64 19.968h437.248z"  horiz-adv-x="1024" />
      
      <glyph glyph-name="jiqun1" unicode="&#58938;" d="M516.928 470.4a12.8 12.8 0 0 0-9.984 0L135.616 628.608a12.288 12.288 0 0 0 0 22.656L506.88 809.664a12.8 12.8 0 0 0 9.984 0l371.456-158.336a12.288 12.288 0 0 0 0-22.656L516.928 470.336zM938.688 540.992c0 9.92-9.664 16.512-18.176 12.416L562.24 382.144a13.76 13.76 0 0 1-7.552-12.48v-398.656c0-9.92 9.6-16.512 18.112-12.416l358.272 171.392a13.696 13.696 0 0 1 7.616 12.48V540.992zM85.312 142.464c0-5.376 3.008-10.24 7.616-12.48l358.272-171.392c8.512-4.096 18.112 2.56 18.112 12.416V369.664a13.76 13.76 0 0 1-7.552 12.48L103.488 553.408c-8.576 4.096-18.176-2.56-18.176-12.48v-398.528 0.064z"  horiz-adv-x="1024" />
      
      <glyph glyph-name="a-lujing5" unicode="&#58939;" d="M512 896a512 512 0 1 1 0-1024A512 512 0 0 1 512 896z m51.2-819.2H460.8V537.6h102.4v-460.8z m-51.2 512a51.2 51.2 0 1 0 0 102.4 51.2 51.2 0 0 0 0-102.4z"  horiz-adv-x="1024" />
      
      <glyph glyph-name="xianshimima" unicode="&#58940;" d="M512 120.32c-176.832 0-340.992 96.512-428.48 251.904L76.8 384l6.656 11.776C171.008 551.168 335.168 647.744 512 647.744a492.992 492.992 0 0 0 428.48-251.968L947.2 384l-6.656-11.776A492.928 492.928 0 0 0 512 120.32zM132.16 384a444.992 444.992 0 0 1 379.904-215.808A444.8 444.8 0 0 1 891.904 384 444.8 444.8 0 0 1 512 599.808 444.928 444.928 0 0 1 132.16 384zM657.92 384.384q0-7.232-0.704-14.4t-2.112-14.208q-1.408-7.04-3.52-13.952t-4.864-13.568q-2.752-6.656-6.144-12.992-3.392-6.4-7.36-12.352-4.032-6.016-8.576-11.52-4.608-5.632-9.664-10.688-5.12-5.12-10.688-9.664-5.568-4.608-11.52-8.576-6.016-4.032-12.352-7.424-6.4-3.392-13.056-6.144-6.656-2.752-13.568-4.864-6.848-2.112-13.952-3.52-7.04-1.408-14.208-2.112-7.168-0.64-14.4-0.64-7.168 0-14.336 0.64-7.168 0.704-14.272 2.112-7.04 1.408-13.952 3.52t-13.568 4.864q-6.656 2.752-12.992 6.144-6.4 3.392-12.352 7.424-5.952 3.968-11.52 8.576-5.632 4.544-10.688 9.6-5.12 5.12-9.664 10.688-4.608 5.568-8.576 11.52-4.032 6.016-7.424 12.416-3.392 6.336-6.144 12.992-2.752 6.656-4.864 13.568-2.048 6.912-3.456 13.952t-2.112 14.208q-0.704 7.168-0.704 14.4t0.64 14.4q0.768 7.168 2.176 14.208 1.408 7.04 3.456 13.952 2.112 6.912 4.864 13.568t6.144 12.992q3.392 6.4 7.424 12.352 3.968 6.016 8.576 11.52 4.544 5.632 9.6 10.688 5.12 5.12 10.688 9.664 5.632 4.608 11.584 8.576 6.016 4.032 12.352 7.424 6.4 3.392 12.992 6.144 6.656 2.752 13.568 4.864t13.952 3.52q7.04 1.408 14.272 2.112 7.168 0.64 14.336 0.64 7.232 0 14.4-0.64 7.168-0.704 14.208-2.112 7.04-1.408 13.952-3.52t13.568-4.864q6.656-2.752 13.056-6.144 6.336-3.392 12.288-7.424 6.016-3.968 11.584-8.576 5.568-4.544 10.688-9.6 5.12-5.12 9.6-10.688 4.608-5.568 8.64-11.52 3.968-6.016 7.36-12.416 3.392-6.336 6.144-12.992 2.752-6.656 4.864-13.568t3.52-13.952q1.408-7.04 2.112-14.208 0.64-7.168 0.64-14.4z"  horiz-adv-x="1024" />
      
      <glyph glyph-name="yincangmima" unicode="&#58942;" d="M512 366.784a665.216 665.216 0 0 0-427.904 143.36 36.544 36.544 0 0 0-10.944 22.336 32.576 32.576 0 0 0 53.76 26.304c197.824-170.048 572.352-170.048 768 0a32.256 32.256 0 1 0 42.432-48.64A663.744 663.744 0 0 0 512 366.784z m-117.056-140.8H389.12a32.192 32.192 0 0 0-23.424 11.712 30.336 30.336 0 0 0-4.736 24.896l21.184 125.824a32.896 32.896 0 0 0 36.608 26.304 33.664 33.664 0 0 0 21.184-13.184 33.984 33.984 0 0 0 5.504-24.512l-21.568-125.44a31.808 31.808 0 0 0-29.248-25.6h0.32z m480.192 64a31.104 31.104 0 0 0-22.656 9.536l-105.664 106.432a31.808 31.808 0 0 0 13.888 55.232 32.896 32.896 0 0 0 31.808-10.624l105.344-106.432a31.808 31.808 0 0 0 0-44.992 34.048 34.048 0 0 0-23.04-9.152h0.32z m-726.656 0a31.808 31.808 0 0 0-30.72 31.424 32.896 32.896 0 0 0 9.536 22.72L232.576 450.56a31.424 31.424 0 0 0 32.96 12.8 32.192 32.192 0 0 0 24.832-24.896 31.424 31.424 0 0 0-13.504-32.512L171.136 299.52a30.016 30.016 0 0 0-23.04-9.536h0.384z m481.984-64a32.192 32.192 0 0 0-31.424 26.368l-21.184 125.44a31.424 31.424 0 0 0 8.384 33.28 30.72 30.72 0 0 0 33.664 6.592c11.52-4.48 19.328-15.168 20.096-27.456l21.568-125.824a32.576 32.576 0 0 0-5.12-23.744 32.896 32.896 0 0 0-20.864-13.184h-5.12v-1.472z"  horiz-adv-x="1024" />
      
      <glyph glyph-name="a-lujing1" unicode="&#58889;" d="M1459.40908848 688.3798687999999A70.06565491 70.06565491 0 0 0 1480.59172854 637.54153308a70.06565491 70.06565491 0 0 0-21.18264006-51.00127862L960.47645036 79.62339009000004A67.94739053 67.94739053 0 0 0 910.28988825 58.11486358000002a67.94739053 67.94739053 0 0 0-50.18656209 21.50852651L361.17068802 586.54025446A70.06565491 70.06565491 0 0 0 339.98804798 637.54153308 70.06565491 70.06565491 0 0 0 361.17068802 688.3798687999999 67.94739053 67.94739053 0 0 0 411.19430655 709.88839531h998.02822047c19.39026278 0 36.17343111-7.16950905 50.18656146-21.50852651z"  horiz-adv-x="1792" />
      
      <glyph glyph-name="lujing" unicode="&#58888;" d="M1447.12575515 688.3798687999999A70.06565491 70.06565491 0 0 0 1468.3083952 637.54153308a70.06565491 70.06565491 0 0 0-21.18264005-51.00127862L948.19311703 79.62339009000004A67.94739053 67.94739053 0 0 0 898.00655492 58.11486358000002a67.94739053 67.94739053 0 0 0-50.18656209 21.50852651L348.88735469 586.54025446A70.06565491 70.06565491 0 0 0 327.70471465 637.54153308 70.06565491 70.06565491 0 0 0 348.88735469 688.3798687999999 67.94739053 67.94739053 0 0 0 398.91097323 709.88839531h998.02822046c19.39026278 0 36.17343111-7.16950905 50.18656147-21.50852651z"  horiz-adv-x="1792" />
      
      <glyph glyph-name="weizhi1" unicode="&#58937;" d="M682.666667 896H341.333333a341.333333 341.333333 0 0 1-341.333333-341.333333v-341.333334a341.333333 341.333333 0 0 1 341.333333-341.333333h341.333334a341.333333 341.333333 0 0 1 341.333333 341.333333V554.666667a341.333333 341.333333 0 0 1-341.333333 341.333333M810.666667 810.666667h-597.333334a42.666667 42.666667 0 0 1-42.666666-42.666667v-768a42.666667 42.666667 0 0 1 42.666666-42.666667h597.333334a42.666667 42.666667 0 0 1 42.666666 42.666667v768a42.666667 42.666667 0 0 1-42.666666 42.666667zM844.8 768q0 14.165333-9.984 24.149333Q824.832 802.133333 810.666667 802.133333h-597.333334q-14.165333 0-24.149333-9.984-9.984-9.984-9.984-24.149333v-768q0-14.165333 9.984-24.149333 9.984-9.984 24.149333-9.984h597.333334q14.165333 0 24.149333 9.984 9.984 9.984 9.984 24.149333v768z m17.066667 0v-768q0-21.162667-15.018667-36.181333-14.933333-15.018667-36.181333-15.018667h-597.333334q-21.248 0-36.181333 15.018667-15.018667 15.018667-15.018667 36.181333v768q0 21.248 15.018667 36.181333Q192 819.2 213.333333 819.2h597.333334q21.248 0 36.181333-15.018667 15.018667-14.933333 15.018667-36.181333zM938.666667 85.333333v597.333334a42.666667 42.666667 0 0 1-42.666667 42.666666h-768a42.666667 42.666667 0 0 1-42.666667-42.666666v-597.333334a42.666667 42.666667 0 0 1 42.666667-42.666666h768a42.666667 42.666667 0 0 1 42.666667 42.666666zM896 51.2q14.165333 0 24.149333 9.984 9.984 9.984 9.984 24.149333v597.333334q0 14.165333-9.984 24.149333-9.984 9.984-24.149333 9.984h-768q-14.165333 0-24.149333-9.984-9.984-9.984-9.984-24.149333v-597.333334q0-34.133333 34.133333-34.133333h768z m0-17.066667h-768q-21.162667 0-36.181333 15.018667Q76.8 64 76.8 85.333333v597.333334q0 21.162667 15.018667 36.181333T128 733.866667h768q21.248 0 36.181333-15.018667 15.018667-15.018667 15.018667-36.181333v-597.333334q0-21.248-15.018667-36.181333-14.933333-15.018667-36.181333-15.018667zM853.333333 768H170.666667a42.666667 42.666667 0 0 1-42.666667-42.666667v-682.666666a42.666667 42.666667 0 0 1 42.666667-42.666667h682.666666a42.666667 42.666667 0 0 1 42.666667 42.666667V725.333333a42.666667 42.666667 0 0 1-42.666667 42.666667zM887.466667 725.333333q0 34.133333-34.133334 34.133334H170.666667q-14.165333 0-24.149334-9.984Q136.533333 739.498667 136.533333 725.333333v-682.666666q0-14.165333 9.984-24.149334 9.984-9.984 24.149334-9.984h682.666666q34.133333 0 34.133334 34.133334V725.333333z m17.066666 0v-682.666666q0-21.248-15.018666-36.181334-14.933333-15.018667-36.181334-15.018666H170.666667q-21.248 0-36.181334 15.018666Q119.466667 21.333333 119.466667 42.666667V725.333333q0 21.248 15.018666 36.181334Q149.333333 776.533333 170.666667 776.533333h682.666666q21.248 0 36.181334-15.018666 15.018667-14.933333 15.018666-36.181334zM938.666667 384q0-10.496-0.512-20.906667-0.512-10.496-1.536-20.906666-1.024-10.410667-2.56-20.821334-1.536-10.325333-3.584-20.565333-2.048-10.24-4.608-20.48-2.56-10.154667-5.546667-20.138667-3.072-10.069333-6.570667-19.882666-3.584-9.898667-7.594666-19.626667-4.010667-9.642667-8.533334-19.114667-4.437333-9.386667-9.386666-18.688-4.864-9.216-10.24-18.176-5.376-9.045333-11.264-17.749333-5.802667-8.704-12.032-17.066667-6.229333-8.448-12.885334-16.554666t-13.653333-15.872q-7.082667-7.68-14.506667-15.104-7.338667-7.424-15.104-14.506667-7.765333-6.997333-15.872-13.653333t-16.554666-12.885334q-8.362667-6.229333-17.066667-12.032-8.704-5.802667-17.749333-11.264-8.96-5.376-18.176-10.24-9.216-4.949333-18.773334-9.386666-9.386667-4.522667-19.114666-8.533334-9.642667-4.010667-19.541334-7.594666-9.813333-3.498667-19.882666-6.570667-9.984-2.986667-20.138667-5.546667-10.24-2.56-20.48-4.608t-20.565333-3.584q-10.410667-1.536-20.821334-2.56t-20.906666-1.536Q522.496-42.666667 512-42.666667t-20.906667 0.512q-10.496 0.512-20.906666 1.536-10.410667 1.024-20.821334 2.56-10.325333 1.536-20.565333 3.584-10.24 2.048-20.48 4.608-10.154667 2.56-20.138667 5.546667-10.069333 3.072-19.882666 6.570667-9.898667 3.584-19.626667 7.594666-9.642667 4.010667-19.114667 8.533334-9.386667 4.437333-18.688 9.386666-9.216 4.864-18.261333 10.24-8.96 5.461333-17.664 11.264t-17.066667 12.032q-8.533333 6.229333-16.554666 12.885334-8.106667 6.656-15.872 13.653333-7.68 7.082667-15.189334 14.506667-7.338667 7.338667-14.421333 15.104-6.997333 7.765333-13.653333 15.872t-12.885334 16.554666q-6.229333 8.362667-12.032 17.066667-5.888 8.704-11.264 17.749333-5.376 8.96-10.24 18.176-4.949333 9.216-9.472 18.773334-4.437333 9.386667-8.533333 19.114666-3.925333 9.642667-7.509333 19.541334-3.498667 9.813333-6.570667 19.882666-2.986667 9.984-5.546667 20.138667-2.56 10.24-4.608 20.48t-3.584 20.565333q-1.536 10.410667-2.56 20.821334t-1.536 20.906666Q85.333333 373.504 85.333333 384t0.512 20.906667q0.512 10.496 1.536 20.906666 1.024 10.410667 2.56 20.821334 1.536 10.325333 3.584 20.650666 2.048 10.24 4.608 20.394667t5.546667 20.138667q3.072 10.069333 6.570667 19.968 3.584 9.813333 7.594666 19.456 4.010667 9.728 8.448 19.2 4.522667 9.386667 9.386667 18.773333 4.949333 9.130667 10.325333 18.176 5.376 8.96 11.264 17.664 5.802667 8.704 11.946667 17.066667 6.314667 8.533333 12.970667 16.554666 6.656 8.106667 13.653333 15.872 7.082667 7.68 14.506667 15.189334 7.338667 7.338667 15.104 14.421333 7.765333 6.997333 15.872 13.653333t16.469333 12.885334q8.533333 6.229333 17.152 12.032 8.704 5.888 17.664 11.264 9.045333 5.376 18.261333 10.24 9.216 5.034667 18.773334 9.472 9.386667 4.437333 19.114666 8.533333 9.642667 3.925333 19.541334 7.509333 9.813333 3.498667 19.882666 6.570667 9.984 2.986667 20.138667 5.546667 10.24 2.56 20.48 4.608t20.565333 3.584q10.410667 1.536 20.821334 2.56t20.906666 1.536Q501.504 810.666667 512 810.666667t20.906667-0.512q10.496-0.512 20.906666-1.536 10.410667-1.024 20.821334-2.56 10.325333-1.536 20.565333-3.584 10.24-2.048 20.48-4.608 10.154667-2.56 20.138667-5.546667 10.069333-3.072 19.882666-6.570667 9.898667-3.584 19.626667-7.594666 9.642667-4.010667 19.114667-8.448 9.386667-4.437333 18.688-9.386667 9.216-4.949333 18.176-10.325333 9.045333-5.376 17.749333-11.264 8.704-5.802667 17.066667-11.946667 8.533333-6.314667 16.554666-12.970667 8.106667-6.656 15.872-13.653333 7.68-7.082667 15.189334-14.506667 7.338667-7.338667 14.421333-15.104 6.997333-7.765333 13.653333-15.872t12.885334-16.469333q6.229333-8.448 12.032-17.152 5.888-8.704 11.264-17.664 5.376-9.045333 10.24-18.261333 4.949333-9.216 9.386666-18.773334 4.522667-9.386667 8.533334-19.114666 4.010667-9.642667 7.594666-19.456 3.498667-9.898667 6.570667-19.968 2.986667-9.984 5.546667-20.138667 2.56-10.24 4.608-20.48t3.584-20.565333q1.536-10.410667 2.56-20.821334t1.536-20.906666Q938.666667 394.496 938.666667 384zM93.866667 384q0-173.226667 122.453333-295.68T512-34.133333q173.226667 0 295.68 122.453333T930.133333 384q0 173.226667-122.453333 295.68T512 802.133333q-173.226667 0-295.68-122.453333T93.866667 384zM76.8 384q0 180.309333 127.488 307.712Q331.690667 819.2 512 819.2q180.224 0 307.712-127.488Q947.2 564.309333 947.2 384q0-180.224-127.488-307.712Q692.224-51.2 512-51.2q-180.309333 0-307.712 127.488Q76.8 203.776 76.8 384zM503.466667-128V896h17.066666v-1024h-17.066666zM682.666667 384q0-8.362667-0.853334-16.725333t-2.389333-16.554667q-1.706667-8.192-4.096-16.213333-2.474667-8.106667-5.632-15.786667-3.242667-7.765333-7.168-15.189333-3.925333-7.338667-8.618667-14.336-4.693333-6.997333-9.984-13.482667-5.290667-6.485333-11.264-12.373333-5.973333-5.973333-12.373333-11.264-6.485333-5.290667-13.482667-9.984-6.997333-4.608-14.336-8.533334-7.424-4.010667-15.189333-7.253333-7.68-3.157333-15.701333-5.632-8.021333-2.389333-16.213334-4.010667-8.277333-1.706667-16.64-2.56Q520.362667 213.333333 512 213.333333t-16.725333 0.853334q-8.362667 0.853333-16.554667 2.474666-8.277333 1.621333-16.213333 4.010667-8.106667 2.474667-15.786667 5.632-7.765333 3.242667-15.189333 7.168-7.338667 4.010667-14.336 8.618667-6.997333 4.693333-13.482667 9.984-6.485333 5.290667-12.373333 11.264-5.973333 5.973333-11.264 12.373333-5.290667 6.485333-9.984 13.482667-4.693333 6.997333-8.533334 14.336-4.010667 7.424-7.253333 15.189333-3.157333 7.68-5.632 15.786667-2.389333 8.021333-4.096 16.213333-1.621333 8.192-2.389333 16.554667Q341.333333 375.637333 341.333333 384t0.853334 16.725333q0.853333 8.362667 2.389333 16.554667 1.706667 8.277333 4.096 16.213333 2.474667 8.106667 5.632 15.786667 3.242667 7.765333 7.168 15.189333 3.925333 7.424 8.618667 14.336 4.693333 6.997333 9.984 13.482667 5.290667 6.485333 11.264 12.373333 5.973333 5.973333 12.373333 11.264 6.485333 5.290667 13.482667 9.984 6.997333 4.693333 14.336 8.533334 7.424 4.010667 15.189333 7.253333 7.68 3.157333 15.701333 5.632 8.021333 2.389333 16.213334 4.096 8.277333 1.621333 16.64 2.389333Q503.637333 554.666667 512 554.666667t16.725333-0.853334q8.362667-0.853333 16.554667-2.389333 8.277333-1.706667 16.213333-4.096 8.106667-2.474667 15.786667-5.632 7.765333-3.242667 15.189333-7.168 7.338667-3.925333 14.336-8.618667 6.997333-4.693333 13.482667-9.984 6.485333-5.290667 12.373333-11.264 5.973333-5.973333 11.264-12.373333 5.290667-6.485333 9.984-13.482667 4.693333-6.912 8.533334-14.336 4.010667-7.424 7.253333-15.189333 3.157333-7.68 5.632-15.701333 2.389333-8.021333 4.096-16.213334 1.621333-8.277333 2.389333-16.64Q682.666667 392.362667 682.666667 384zM349.866667 384q0-67.157333 47.445333-114.602667Q444.842667 221.866667 512 221.866667t114.602667 47.530666Q674.133333 316.842667 674.133333 384q0 67.157333-47.530666 114.688Q579.157333 546.133333 512 546.133333q-67.157333 0-114.688-47.445333Q349.866667 451.157333 349.866667 384z m-17.066667 0q0 74.24 52.48 126.72Q437.76 563.2 512 563.2q74.24 0 126.72-52.48Q691.2 458.24 691.2 384q0-74.24-52.48-126.72Q586.24 204.8 512 204.8q-74.24 0-126.72 52.48Q332.8 309.76 332.8 384zM1024 375.466667H0v17.066666h1024v-17.066666zM1001.984-118.016L17.92 865.962667 30.037333 877.994667l983.978667-983.893334-12.032-12.117333zM1006.08 865.962667L29.952-109.994667l-12.032 12.032L993.962667 877.994667l12.032-12.032z"  horiz-adv-x="1024" />
      
      <glyph glyph-name="sousuo1" unicode="&#58882;" d="M969.25693235-110.07935338000004c-7.65906421 0-15.02354815 2.9457933-20.91513613 8.54280097l-235.66350091 235.66350093a29.3401058 29.3401058 0 1 0 41.53569195 41.53569194l235.66350093-235.66350093a29.3401058 29.3401058 0 0 0-20.62055584-50.07849291zM431.10134501 813.47115701c196.988153 0 357.51025794-160.52210661 357.51025961-357.51025963s-160.52210661-357.51025794-357.51025961-357.51025793-357.51025794 160.52210661-357.51025789 357.51025793 160.52210661 357.51025794 357.51025789 357.51025963m0 71.50205057c-237.02930139 0-429.01231019-191.9830088-429.01231018-429.0123102s191.9830088-429.01231019 429.01231018-429.01231017 429.01231019 191.9830088 429.01231019 429.01231017-191.9830088 429.01231019-429.01231019 429.0123102z"  horiz-adv-x="1024" />
      
      <glyph glyph-name="weidu1" unicode="&#58936;" d="M395.95957302 384a116.04042698 116.04042698 0 1 1 232.08085396 0 116.04042698 116.04042698 0 1 1-232.08085397 0Z"  horiz-adv-x="1024" />
      
      <glyph glyph-name="yichang" unicode="&#58933;" d="M404.210526 491.789474a107.789474 107.789474 0 1 1 215.578948 0 107.789474 107.789474 0 1 1-215.578948 0Z"  horiz-adv-x="1024" />
      
      <glyph glyph-name="zhengchang" unicode="&#58934;" d="M404.210526 491.789474a107.789474 107.789474 0 1 1 215.578948 0 107.789474 107.789474 0 1 1-215.578948 0Z"  horiz-adv-x="1024" />
      
      <glyph glyph-name="caozuo" unicode="&#58935;" d="M409.6 793.6a102.4 102.4 0 1 1 204.8 0 102.4 102.4 0 1 1-204.8 0ZM409.6 384a102.4 102.4 0 1 1 204.8 0 102.4 102.4 0 1 1-204.8 0ZM409.6-25.6a102.4 102.4 0 1 1 204.8 0 102.4 102.4 0 1 1-204.8 0Z"  horiz-adv-x="1024" />
      
      <glyph glyph-name="gailan-2" unicode="&#58918;" d="M448 768a448 448 0 1 1 448-448H448V768zM512 832v-448h448c2.112 247.488-198.4 448-448 448z"  horiz-adv-x="1024" />
      
      <glyph glyph-name="jiedian" unicode="&#58919;" d="M213.312 618.688c0 11.776 9.6 21.312 21.376 21.312h42.624c11.776 0 21.376-9.6 21.376-21.312V448c0-11.776 9.536-21.312 21.312-21.312h298.688c11.776 0 21.312-9.6 21.312-21.376v-42.624c0-11.776-9.6-21.376-21.312-21.376H320A21.312 21.312 0 0 1 298.688 320v-213.312c0-11.776 9.536-21.376 21.312-21.376h298.688c11.776 0 21.312-9.536 21.312-21.312v-42.688c0-11.776-9.6-21.312-21.312-21.312h-384a21.312 21.312 0 0 0-21.376 21.312V618.688zM597.312 469.312c0 23.616 19.136 42.688 42.688 42.688h256c23.552 0 42.688-19.072 42.688-42.688v-170.624A42.688 42.688 0 0 0 896 256h-256a42.688 42.688 0 0 0-42.688 42.688V469.312z m0-341.312c0 23.552 19.136 42.688 42.688 42.688h256c23.552 0 42.688-19.136 42.688-42.688v-170.688a42.688 42.688 0 0 0-42.688-42.624h-256a42.688 42.688 0 0 0-42.688 42.624V128zM85.312 810.688c0 23.552 19.136 42.624 42.688 42.624h256c23.552 0 42.688-19.072 42.688-42.624V640A42.688 42.688 0 0 0 384 597.312H128A42.688 42.688 0 0 0 85.312 640V810.688z"  horiz-adv-x="1024" />
      
      <glyph glyph-name="gailan" unicode="&#58920;" d="M492.416 682.79466667L359.68 747.94666667v39.808L535.488 874.66666667l171.52-86.912v-39.808l-128.64-65.152-4.352-39.744-38.528 21.632-43.072-21.632v39.744zM748.16 391.53066667v134.4L629.824 593.1946666700001v41.024l152.576 86.016 156.288-86.016v-175.36l-156.288-86.016-34.24 18.688zM359.616 7.210666670000023v186.88l38.528 24.32L531.2 145.25866667000003l137.28 73.152 38.592-20.352v-190.848L531.2-90.38933333l-171.584 97.6zM745.792 84.45866666999996V232.74666666999997l-38.72 24.832 38.72 20.48v45.44l34.624-24.832 119.68 74.176 38.592-20.672v-193.536l-158.272-94.656-34.624 20.48zM359.616 314.02666667000005V509.03466667l175.872 95.36 171.52-95.36v-195.136L531.2 218.41066666999996 359.616 314.02666667000005zM128 158.63466667l3.84 193.536 34.048 20.672L283.648 298.66666667000004l37.888 24.576v-45.248l38.08-24.576-38.08-20.672v-148.288l-37.888-20.48L128 158.63466667zM128 458.85866667l3.776 175.36 154.432 86.016 150.592-86.016v-40.96L320 525.86666667V395.30666667l-37.568-22.464L128 458.85866667z"  horiz-adv-x="1024" />
      
      <glyph glyph-name="anquan" unicode="&#58921;" d="M319.104 758.016c45.44 21.312 89.6 44.992 132.48 71.04a21.888 21.888 0 0 0 20.16 0c6.144-2.304 10.24-8.32 10.048-14.848v-335.04a17.664 17.664 0 0 0-18.56-16.384h-375.68a18.048 18.048 0 0 0-19.072 14.912 1636.544 1636.544 0 0 0 0 243.072 18.304 18.304 0 0 0 9.344 11.52 24.96 24.96 0 0 0 16.384 0A301.824 301.824 0 0 1 318.08 755.84l1.088 2.176h-0.064zM703.744 758.016A2755.2 2755.2 0 0 0 571.328 829.44a21.632 21.632 0 0 1-19.712 0 16.128 16.128 0 0 1-10.112-14.08v-335.04c0.64-9.6 9.024-16.832 18.624-16h375.68a17.856 17.856 0 0 1 18.56 14.912c6.4 80.64 6.4 161.664 0 242.304a15.68 15.68 0 0 1-8.96 11.584 21.44 21.44 0 0 1-16.384 0 304.64 304.64 0 0 0-225.28 24.832v0.064zM128.192 213.12a697.408 697.408 0 0 1 325.696-273.856c5.888-2.816 12.8-2.816 18.624 0a17.28 17.28 0 0 1 9.28 15.36V393.984a17.472 17.472 0 0 1-5.568 12.672 23.296 23.296 0 0 1-14.08 5.568H84.096a22.72 22.72 0 0 1-15.68-6.656 17.088 17.088 0 0 1-4.032-14.848c11.072-61.952 32.64-121.6 63.744-176.384v-1.28l0.064 0.064zM895.168 213.12a697.408 697.408 0 0 0-325.76-273.856 21.376 21.376 0 0 0-18.56 0 17.28 17.28 0 0 0-9.344 15.36V393.984c0 4.8 2.112 9.408 5.632 12.672a21.824 21.824 0 0 0 14.08 5.568h377.984c5.888-0.064 11.52-2.496 15.68-6.656 3.584-4.032 5.12-9.472 4.032-14.848-11.072-61.952-32.64-121.6-63.744-176.384v-1.28 0.064z"  horiz-adv-x="1024" />
      
      <glyph glyph-name="gaoji" unicode="&#58922;" d="M682.496 495.04a573.568 573.568 0 0 1-22.656 67.712c-80.64-17.856-106.944 52.224-73.088 101.12a93.44 93.44 0 0 1-56.192 39.04c-33.856-51.776-126.144-25.664-117.888 45.056H333.632c6.656-75.776-84.608-91.776-123.52-44.992-19.072-12.608-45.184-17.984-50.752-44.8 37.12-44.48 3.2-113.92-73.088-95.424-8.256-21.44-16.384-43.904-22.272-67.712 63.872-10.048 63.872-107.968 0-118.08 5.888-23.552 14.08-46.08 22.272-67.456 80.64 17.792 107.648-52.224 73.088-101.184 12.8-19.072 30.976-32.768 56.512-39.232 33.92 51.84 126.08 25.728 117.76-45.248h79.04c-6.848 76.16 84.608 92.032 123.648 45.248 19.072 12.544 45.376 18.368 50.432 44.992-36.736 44.608-2.88 113.728 73.088 95.36a582.4 582.4 0 0 1 22.656 67.52c-66.56 16.384-66.56 101.888 0 118.08zM373.248 318.848a117.184 117.184 0 1 0 0 234.368 117.184 117.184 0 0 0 0-234.368zM960.64 200a322.368 322.368 0 0 1-7.936 37.12c-43.712-4.352-53.824 34.56-32.192 58.112a52.16 52.16 0 0 1-27.776 24.32c-20.864-25.216-68.736-6.144-59.52 31.168-13.888 1.792-27.776 3.2-41.984 4.864-0.704-40.32-50.24-43.392-67.84-15.872-11.392-5.76-25.216-7.168-29.76-20.864 16.768-25.92-5.376-60.48-44.8-46.08-5.76-10.816-11.328-22.144-16-34.24 33.088-9.344 27.008-61.568-7.232-62.784 1.792-13.184 4.352-25.216 7.552-36.928 43.968 4.288 53.696-34.56 32.768-58.304 5.44-10.816 14.08-19.072 26.88-24.128 21.376 25.152 68.544 5.76 59.712-31.68 14.208-1.28 28.288-2.88 41.792-4.672 1.28 40.64 50.752 43.52 68.416 16.512 10.944 5.632 24.96 6.656 29.696 20.544-16.64 25.92 5.376 60.48 44.608 46.272 5.568 10.816 11.2 22.144 16 34.048-33.984 12.928-28.928 58.112 7.616 62.592z m-174.976-74.112a62.72 62.72 0 0 0-54.912 69.44 62.528 62.528 0 0 0 69.312 54.528 61.632 61.632 0 0 0 54.528-69.248 61.76 61.76 0 0 0-68.928-54.72z"  horiz-adv-x="1024" />
      
      <glyph glyph-name="wangluo" unicode="&#58923;" d="M493.44 625.152V810.688c-59.328-11.136-115.008-81.664-148.416-181.76H493.44v-3.776z m37.12 185.536v-181.76h148.416c-33.408 96.384-89.088 166.848-148.416 181.76z m-133.568-14.848c-96.512-25.984-181.824-89.088-237.44-170.688h144.64c22.272 74.24 55.68 133.568 92.8 170.688zM493.44-39.04v181.76H345.024c33.408-100.096 89.088-170.624 148.416-181.76z m371.008 181.76h-144.704c-22.208-70.4-55.68-129.792-92.736-166.912 96.448 25.984 181.76 85.376 237.44 166.976z m-704.896 0c55.616-81.536 140.928-140.928 237.44-170.624-37.12 40.832-70.528 96.512-92.8 170.624h-144.64z m519.424 0H530.56v-181.76c59.328 11.136 115.008 81.664 148.416 181.76z m185.472 482.368c-55.68 81.6-140.992 140.992-237.44 170.688 37.12-40.832 70.528-96.448 92.736-170.688h144.704zM690.112 588.096H530.496V402.56h185.6c-3.712 66.752-11.136 129.856-26.048 185.536zM493.44 365.44H307.904c0-66.752 11.136-129.856 26.048-185.536H493.44V365.44z m0 222.656H333.888c-14.848-55.68-22.272-118.784-25.984-185.536H493.44V588.096z m237.44-408.192h155.84a446.72 446.72 0 0 1 51.968 185.536h-185.536c0-66.752-11.072-129.856-22.272-185.536zM270.848 365.44H85.312a446.784 446.784 0 0 1 51.968-185.536H293.12c-11.136 55.68-22.272 118.784-22.272 185.536z m22.272 222.656H137.28a446.784 446.784 0 0 1-51.968-185.536h185.536c0 66.752 11.072 129.856 22.272 185.536z m422.976-222.656H530.56v-185.536h159.552c14.848 55.68 22.272 118.784 25.984 185.536z m37.12 37.12h185.472a446.72 446.72 0 0 1-51.968 185.536H730.88c11.136-55.68 22.272-118.784 22.272-185.536z"  horiz-adv-x="1024" />
      
      <glyph glyph-name="cunchu" unicode="&#58924;" d="M217.408 853.312h584.32c34.304 0 63.488-24.896 68.928-58.752l108.992-675.84H42.688L148.48 794.24c5.312 33.984 34.56 59.072 68.928 59.136zM90.88 159.552h843.968c30.976 0 46.528-15.552 46.528-46.656v-151.616c0-31.104-15.552-46.592-46.528-46.592H90.88c-31.04 0-46.592 15.488-46.592 46.592v151.616c0 31.104 15.552 46.656 46.592 46.656zM678.208 65.088c0 7.04 5.76 12.8 12.8 12.8h55.872c7.04 0 12.8-5.76 12.8-12.8v-56a12.8 12.8 0 0 0-12.8-12.8h-55.872a12.8 12.8 0 0 0-12.8 12.8v56z m138.496 0c0 7.04 5.76 12.8 12.8 12.8h55.872c7.04 0 12.8-5.76 12.8-12.8v-56a12.8 12.8 0 0 0-12.8-12.8h-55.872a12.8 12.8 0 0 0-12.8 12.8v56z"  horiz-adv-x="1024" />
      
      <glyph glyph-name="jiqun" unicode="&#58925;" d="M513.024 331.52a19.968 19.968 0 0 0-10.048 2.624L322.56 438.336a19.968 19.968 0 0 0-9.92 17.28V664.064c0 7.168 3.84 13.76 9.984 17.28l180.48 104.256a19.968 19.968 0 0 0 19.968 0l180.48-104.192a19.968 19.968 0 0 0 9.984-17.28V455.68c0-7.168-3.84-13.76-10.048-17.344L522.944 334.08a19.968 19.968 0 0 0-9.92-2.688zM352.576 467.2l160.448-92.672L673.472 467.2V652.48L513.024 745.088 352.576 652.48V467.2z m159.296 101.376a9.984 9.984 0 0 0-4.928 1.28l-110.4 62.528a9.984 9.984 0 0 0-0.128 17.28l111.552 64.832a9.984 9.984 0 0 0 10.048 0l110.4-63.616a9.984 9.984 0 0 0 0-17.344l-111.616-63.616a9.984 9.984 0 0 0-4.928-1.28zM421.568 641.152l90.24-51.072 91.52 52.16-90.24 52.096-91.52-53.12zM299.2-31.296a19.968 19.968 0 0 0-9.984 2.688l-180.48 104.192a20.032 20.032 0 0 0-9.984 17.28V301.248c0 7.168 3.84 13.76 9.984 17.28l180.48 104.256a19.968 19.968 0 0 0 19.968 0l180.48-104.192a19.968 19.968 0 0 0 9.984-17.28v-208.448c0-7.104-3.84-13.696-9.984-17.28l-180.48-104.192a20.032 20.032 0 0 0-9.984-2.688z m-160.448 135.68l160.448-92.608 160.448 92.672V289.728L299.2 382.336 138.752 289.728v-185.28z m159.296 101.44a9.984 9.984 0 0 0-4.928 1.28l-110.4 62.464a9.984 9.984 0 0 0-0.128 17.344l111.616 64.832a9.984 9.984 0 0 0 9.984 0l110.4-63.616a9.984 9.984 0 0 0 0-17.344l-111.616-63.616a9.984 9.984 0 0 0-4.928-1.28zM207.808 278.4l90.24-51.072 91.456 52.16-90.24 52.032-91.52-53.12z m518.208-72.576a9.984 9.984 0 0 0-4.928 1.28l-110.4 62.464a9.984 9.984 0 0 0-0.064 17.344l111.552 64.832a9.984 9.984 0 0 0 9.984 0l110.4-63.616a9.984 9.984 0 0 0 0-17.344l-111.616-63.616a10.048 10.048 0 0 0-4.928-1.28zM635.776 278.4l90.24-51.072 91.52 52.16-90.304 52.032-91.52-53.12z m89.6-309.696a19.968 19.968 0 0 0-9.984 2.688l-180.48 104.192a20.032 20.032 0 0 0-9.984 17.28V301.248c0 7.168 3.84 13.76 10.048 17.28l180.48 104.256a19.968 19.968 0 0 0 19.968 0l180.48-104.192a20.032 20.032 0 0 0 9.984-17.28v-208.448c0-7.104-3.84-13.696-10.048-17.28l-180.48-104.192a20.032 20.032 0 0 0-9.92-2.688z m-160.448 135.68l160.512-92.608 160.448 92.672V289.728l-160.448 92.608-160.512-92.608v-185.28z"  horiz-adv-x="1024" />
      
      <glyph glyph-name="jisuan" unicode="&#58926;" d="M835.84 754.752H205.952c-35.648 0-64.64-29.056-64.64-64.64v-629.888c0-35.648 28.992-64.64 64.64-64.64h629.888c35.584 0 64.64 28.992 64.64 64.64V690.112c0 35.584-28.992 64.64-64.64 64.64z m-64.64-532.992c0-53.504-43.392-96.896-96.96-96.896H367.36a97.024 97.024 0 0 0-96.96 96.896V528.64c0 53.504 43.456 96.96 96.96 96.96h306.88c53.568 0 96.96-43.456 96.96-96.96v-306.88zM674.24 560.96H367.424a32.32 32.32 0 0 1-32.384-32.32v-306.88c0-17.92 14.464-32.32 32.384-32.32h306.816a32.32 32.32 0 0 1 32.32 32.32V528.64a32.384 32.384 0 0 1-32.32 32.32zM353.024 860.672A35.392 35.392 0 0 1 317.696 896a35.392 35.392 0 0 1-35.264-35.328v-79.424h70.592V860.672zM0 366.336c0-19.52 15.808-35.264 35.328-35.328h79.424V401.664H35.328A35.392 35.392 0 0 1 0 366.336zM547.392 860.672A35.392 35.392 0 0 1 512.064 896a35.392 35.392 0 0 1-35.328-35.328v-79.424h70.656V860.672z m194.176 0A35.392 35.392 0 0 1 706.24 896a35.392 35.392 0 0 1-35.328-35.328v-79.424h70.656V860.672zM1024 560.512a35.392 35.392 0 0 1-35.328 35.328h-61.76v-70.592h61.76A35.264 35.264 0 0 1 1024 560.512z m-1024 0c0.064-19.456 15.872-35.2 35.328-35.264h79.424V595.84H35.328A35.392 35.392 0 0 1 0 560.512z m988.672-353.088h-61.76v-70.592h61.76a35.328 35.328 0 1 1 0 70.656z m0 194.24h-61.76v-70.656h61.76a35.328 35.328 0 1 1 0 70.656z m-317.76-494.336c0.064-19.456 15.808-35.2 35.328-35.328a35.392 35.392 0 0 1 35.328 35.328v61.76h-70.656v-61.76z m-388.352 0c0-19.52 15.808-35.264 35.328-35.328a35.392 35.392 0 0 1 35.328 35.328v61.76H282.56v-61.76z m194.176 0c0.064-19.52 15.872-35.264 35.328-35.328a35.392 35.392 0 0 1 35.328 35.328v61.76H476.8v-61.76zM0 172.16c0-19.52 15.808-35.264 35.328-35.328h79.424v70.592H35.328A35.392 35.392 0 0 1 0 172.16z"  horiz-adv-x="1024" />
      
      <glyph glyph-name="rongqi" unicode="&#58927;" d="M1024 384q0-12.576-0.608-25.12-0.64-12.56-1.856-25.072-1.232-12.496-3.072-24.928-1.856-12.432-4.304-24.768-2.448-12.32-5.504-24.512-3.04-12.192-6.704-24.224-3.648-12.032-7.888-23.872-4.224-11.84-9.04-23.44-4.8-11.616-10.176-22.976t-11.296-22.448q-5.92-11.088-12.4-21.856-6.464-10.784-13.44-21.232-6.976-10.448-14.464-20.544t-15.472-19.824q-7.968-9.712-16.416-19.024-8.432-9.312-17.328-18.192-8.88-8.896-18.192-17.328-9.312-8.448-19.04-16.416-9.712-7.984-19.808-15.472-10.08-7.488-20.544-14.464-10.448-6.992-21.232-13.44-10.768-6.464-21.856-12.384-11.088-5.92-22.448-11.312-11.36-5.376-22.976-10.176t-23.44-9.04q-11.84-4.24-23.872-7.888-12.032-3.648-24.224-6.704-12.192-3.04-24.512-5.504-12.32-2.448-24.768-4.304-12.432-1.84-24.928-3.072-12.512-1.232-25.072-1.856Q524.576-128 512-128t-25.12 0.608q-12.56 0.64-25.072 1.856-12.496 1.232-24.928 3.072-12.432 1.856-24.768 4.304-12.32 2.448-24.512 5.504-12.192 3.04-24.224 6.704-12.032 3.648-23.856 7.888-11.84 4.224-23.456 9.04-11.616 4.8-22.976 10.176t-22.448 11.296q-11.072 5.92-21.856 12.4-10.784 6.464-21.232 13.44-10.448 6.976-20.544 14.464t-19.824 15.472q-9.712 7.968-19.024 16.416-9.312 8.432-18.192 17.328-8.896 8.88-17.328 18.192-8.448 9.312-16.416 19.04-7.984 9.712-15.472 19.808-7.488 10.08-14.464 20.544-6.976 10.448-13.44 21.232-6.464 10.768-12.384 21.856-5.92 11.088-11.312 22.448-5.376 11.36-10.176 22.976T29.92 211.52q-4.24 11.84-7.888 23.872-3.648 12.032-6.704 24.224-3.04 12.192-5.504 24.512-2.448 12.32-4.304 24.768-1.84 12.432-3.072 24.928-1.232 12.512-1.84 25.072Q0 371.424 0 384t0.624 25.12q0.608 12.56 1.84 25.072 1.232 12.496 3.072 24.928 1.856 12.432 4.304 24.768 2.448 12.32 5.504 24.512 3.04 12.192 6.704 24.224 3.648 12.032 7.888 23.856 4.224 11.84 9.04 23.456 4.8 11.616 10.176 22.976t11.312 22.448q5.92 11.072 12.384 21.856 6.464 10.784 13.44 21.232 6.976 10.448 14.464 20.544t15.472 19.824q7.968 9.712 16.416 19.024 8.432 9.312 17.328 18.192 8.88 8.896 18.192 17.328 9.312 8.448 19.04 16.416 9.712 7.984 19.808 15.472 10.08 7.488 20.544 14.464 10.448 6.976 21.232 13.44 10.784 6.464 21.856 12.384 11.088 5.92 22.448 11.312 11.36 5.376 22.976 10.176t23.44 9.04q11.84 4.24 23.872 7.888 12.032 3.648 24.224 6.704 12.192 3.04 24.512 5.504 12.32 2.448 24.768 4.304 12.432 1.84 24.928 3.072 12.512 1.232 25.072 1.84Q499.424 896 512 896t25.12-0.624q12.56-0.608 25.072-1.84 12.496-1.232 24.928-3.072 12.432-1.856 24.768-4.304 12.32-2.448 24.512-5.504 12.192-3.04 24.224-6.704 12.032-3.648 23.872-7.888 11.84-4.224 23.44-9.04 11.616-4.8 22.976-10.176t22.448-11.312q11.088-5.92 21.856-12.384 10.784-6.464 21.232-13.44 10.448-6.976 20.544-14.464t19.824-15.472q9.712-7.968 19.024-16.416 9.312-8.432 18.192-17.328 8.896-8.88 17.328-18.192 8.448-9.312 16.416-19.04 7.984-9.712 15.472-19.808 7.488-10.08 14.464-20.544 6.992-10.448 13.44-21.232 6.464-10.784 12.384-21.856 5.92-11.088 11.312-22.448 5.376-11.36 10.176-22.976t9.04-23.44q4.24-11.84 7.888-23.872 3.648-12.032 6.704-24.224 3.04-12.192 5.504-24.512 2.448-12.32 4.304-24.768 1.84-12.432 3.072-24.928 1.232-12.512 1.856-25.072Q1024 396.576 1024 384zM488.784 551.424l-75.52 37.04v22.608l99.968 49.408 97.536-49.408v-22.608L537.6 551.424l-2.464-22.608-21.888 12.288-24.48-12.288v22.608z m145.36-165.552V462.24l-67.264 38.24v23.328l86.736 48.896 88.784-48.896v-99.68l-88.832-48.912-19.456 10.656h0.032zM413.28 167.392v106.24l21.888 13.824 75.632-41.6 78.08 41.584 21.888-11.568v-108.48l-99.968-55.488-97.536 55.488h0.016z m219.456 43.904v84.32l-22.016 14.08 22.016 11.632v25.84l19.712-14.08 68 42.128 21.92-11.728v-110.048l-89.92-53.76-19.712 11.6v0.016zM413.28 341.76v110.896l99.968 54.224 97.52-54.224v-110.88l-99.968-54.32-97.536 54.336 0.016-0.032z m-131.68-88.288l2.176 110.016 19.376 11.728 66.928-42.128 21.52 13.968v-25.728l21.664-13.968-21.664-11.76v-84.304l-21.52-11.616-88.48 53.792zM281.6 424.112l2.144 99.68 87.76 48.912 85.632-48.896v-23.296l-66.384-38.272v-74.24l-21.376-12.8-87.776 48.912z"  horiz-adv-x="1024" />
      
      <glyph glyph-name="xiangmu" unicode="&#58928;" d="M789.248 412.444444H234.666667C216.888889 412.444444 199.111111 427.491556 199.111111 447.402667V747.235556C199.111111 767.288889 212.48 782.222222 234.666667 782.222222h554.666666c17.777778 0 35.555556-15.047111 35.555556-34.958222v-299.776c-0.085333-15.018667-13.454222-35.043556-35.640889-35.043556zM874.467556 487.139556l101.546666-71.68 19.342222-56.263112h-120.888888v127.943112z m-725.134223 0l-101.546666-71.68L28.444444 359.196444h120.888889v127.943112zM850.318222 251.733333H173.539556c-24.177778 0-43.52 20.48-43.52 40.874667V635.448889c0 25.6 19.342222 40.874667 43.52 40.874667h676.778666c24.177778 0 43.52-20.48 43.52-40.874667v-337.635556c0-25.6-19.342222-46.08-43.52-46.08zM810.780444 379.676444v-86.954666c0-25.6-19.456-40.874667-38.826666-40.874667H247.182222c-24.263111 0-38.798222 20.48-38.798222 40.874667v86.954666c0 25.6-19.484444 40.96-38.826667 40.96H67.498667c-24.291556 0-38.826667-20.48-38.826667-40.96v-337.635555c0-25.6 19.456-40.874667 38.826667-40.874667h888.945777c24.291556 0 38.826667 20.48 38.826667 40.874667v337.635555c0 25.6-19.456 40.96-38.826667 40.96h-102.030222c-24.263111 5.006222-43.633778-15.36-43.633778-40.96zM347.107556 526.222222H250.339556c-11.377778 0-22.784 14.136889-22.784 28.444445s11.377778 28.444444 22.784 28.444444h96.654222c11.377778 0 22.784-14.136889 22.784-28.444444s-11.377778-28.444444-22.670222-28.444445z"  horiz-adv-x="1024" />
      
      <glyph glyph-name="chilun" unicode="&#58929;" d="M512.256 216c-95.232 0-168 72.768-168 168 0 95.168 72.768 168 168 168 95.168 0 168-72.832 168-168 0-95.232-72.832-168-168-168z m0 280A112.32 112.32 0 0 1 400.256 384c0-61.632 50.368-112 112-112 61.568 0 112 50.368 112 112s-50.432 112-112 112zM624.192-64h-224c-16.768 0-27.968 11.2-27.968 28.032V70.4c-22.4 11.2-44.8 22.4-61.632 33.6l-89.6-56a29.504 29.504 0 0 0-39.168 11.2l-112 196.032c-11.2 16.768-5.632 33.536 11.2 39.168l89.6 56v67.2l-89.6 56c-16.832 5.568-22.4 22.4-11.2 39.168l112 196.032c5.568 11.2 22.4 16.768 39.168 5.568l89.6-55.936c16.832 11.2 39.232 27.968 61.632 33.6v112c0 16.768 11.2 27.968 27.968 27.968h224c16.832 0 28.032-11.2 28.032-28.032V697.6c22.4-11.2 44.8-22.4 61.568-33.6l89.6 56a29.568 29.568 0 0 0 39.232-11.2l112-196.032c11.2-16.768 5.568-33.536-11.2-39.168l-89.6-56v-67.2l89.6-56c11.2-5.632 16.768-22.4 11.2-39.168l-112-196.032c-5.632-11.2-22.4-16.832-39.232-11.2l-89.6 56c-16.768-11.2-39.168-28.032-61.568-33.6v-106.368c0-16.832-11.2-28.032-28.032-28.032z m-195.968 56h168v95.232c0 11.2 5.568 22.4 16.768 27.968 27.968 11.52 54.272 26.624 78.4 44.8a35.712 35.712 0 0 0 33.6 0l84.032-50.368 83.968 145.6-83.968 50.368c-11.2 11.2-16.832 22.4-11.2 33.6 0 16.768 5.568 28.032 5.568 44.8 0 16.832 0 28.032-5.568 44.8 0 11.2 5.568 22.4 11.2 28.032l83.968 50.368L809.024 652.8l-84.032-50.432a35.712 35.712 0 0 0-33.6 0 357.12 357.12 0 0 1-78.4 44.8c-11.2 11.2-16.768 22.4-16.768 33.664V776H428.16v-95.168c0-11.2-5.632-22.4-16.832-28.032-27.904-11.52-54.272-26.624-78.4-44.8a35.712 35.712 0 0 0-33.6 0l-83.968 44.8-84.032-145.6 84.032-50.368c11.2-5.632 16.768-16.832 11.2-28.032 0-16.832-5.632-28.032-5.632-44.8 0-16.768 0-28.032 5.632-44.8 5.568-11.2 0-22.4-11.2-28.032l-84.032-50.368L215.424 115.2l83.968 50.368a35.712 35.712 0 0 0 33.6 0c22.4-16.768 50.432-33.536 78.4-44.8a30.784 30.784 0 0 0 16.832-27.968v-100.8z"  horiz-adv-x="1024" />
      
      <glyph glyph-name="jiankong" unicode="&#58930;" d="M812.032 26.944H211.904c-15.936 0-28.8-12.16-28.8-27.264v-15.104c0-15.04 12.864-27.264 28.8-27.264h600.128c15.872 0 28.8 12.224 28.8 27.264v15.104a28.032 28.032 0 0 1-28.8 27.264zM869.12 810.688H154.88a66.752 66.752 0 0 1-49.216-21.504 74.752 74.752 0 0 1-20.352-51.904v-535.872a76.672 76.672 0 0 1 20.352-51.904c6.528-6.848 14.208-12.224 22.656-15.936 8.384-3.712 17.408-5.568 26.56-5.568h714.24c18.432 0 36.16 7.68 49.216 21.504a75.52 75.52 0 0 1 20.352 51.84V737.28a75.52 75.52 0 0 1-20.352 51.84 67.776 67.776 0 0 1-49.216 21.568zM247.104 333.76a55.808 55.808 0 0 0-23.936-6.656V328.32a56.32 56.32 0 0 0-37.312 17.408 55.104 55.104 0 0 0 0 75.84 56.32 56.32 0 0 0 37.312 17.408 51.2 51.2 0 0 0 14.272-2.24L364.288 569.6a51.84 51.84 0 0 0 13.44 51.84 53.312 53.312 0 0 0 74.816 0 52.352 52.352 0 0 0 13.44-51.84l124.544-130.432a45.952 45.952 0 0 0 33.408 0l120.704 126.144a55.04 55.04 0 0 0 6.208 50.304 56.448 56.448 0 0 0 25.6 20.48 56.64 56.64 0 0 0 61.504-13.44 55.296 55.296 0 0 0-11.904-85.696 56.512 56.512 0 0 0-32-7.744 50.944 50.944 0 0 0-10.176 0l-125.248-132.096a56.768 56.768 0 0 0 1.6-12.288 51.904 51.904 0 0 0-14.272-39.36 53.632 53.632 0 0 0-77.44 0 52.48 52.48 0 0 0-14.272 39.36c0.064 4.096 0.576 8.256 1.344 12.352L429.44 529.216a45.888 45.888 0 0 0-28.608 0l-127.104-131.84a54.208 54.208 0 0 0-26.624-63.68z"  horiz-adv-x="1024" />
      
      <glyph glyph-name="sousuo" unicode="&#58931;" d="M435.136 25.728q10.688 0 21.376 0.512 10.624 0.512 21.248 1.6 10.624 1.024 21.248 2.56 10.56 1.6 20.992 3.712 10.496 2.048 20.864 4.672 10.368 2.56 20.608 5.696 10.24 3.072 20.224 6.656 10.112 3.648 19.968 7.68 9.856 4.096 19.52 8.704 9.6 4.544 19.072 9.6 9.408 5.056 18.56 10.496 9.152 5.504 18.048 11.456 8.896 5.952 17.472 12.288 8.576 6.4 16.832 13.12 8.32 6.784 16.192 13.952t15.488 14.72q7.552 7.552 14.72 15.488 7.168 7.936 13.952 16.192t13.12 16.832q6.4 8.576 12.288 17.472 5.952 8.896 11.456 18.048 5.44 9.152 10.496 18.56t9.6 19.072q4.608 9.664 8.64 19.52 4.096 9.856 7.68 19.968 3.648 10.048 6.72 20.224 3.136 10.24 5.76 20.608 2.56 10.368 4.608 20.864 2.112 10.432 3.648 20.992 1.6 10.624 2.624 21.248 1.088 10.624 1.6 21.248 0.512 10.688 0.512 21.376t-0.512 21.376q-0.512 10.624-1.6 21.248-1.024 10.688-2.56 21.248-1.6 10.56-3.712 20.992-2.048 10.496-4.672 20.864-2.56 10.368-5.696 20.608-3.072 10.24-6.656 20.288-3.648 10.048-7.68 19.84-4.096 9.92-8.704 19.584-4.544 9.6-9.6 19.072-5.056 9.408-10.496 18.56-5.504 9.216-11.456 18.048-5.952 8.96-12.288 17.472-6.4 8.576-13.12 16.832-6.784 8.32-13.952 16.192-7.168 7.936-14.72 15.488-7.552 7.552-15.488 14.72-7.936 7.168-16.192 13.952t-16.832 13.12q-8.576 6.4-17.472 12.288-8.896 5.952-18.048 11.456-9.152 5.504-18.56 10.496-9.408 5.056-19.072 9.6Q611.52 858.88 601.6 862.848q-9.856 4.096-19.968 7.68Q571.648 874.24 561.472 877.312q-10.24 3.136-20.608 5.76-10.368 2.56-20.864 4.608-10.432 2.112-20.992 3.648Q488.32 892.864 477.76 893.888 467.2 894.976 456.512 895.488 445.824 896 435.136 896t-21.376-0.512Q403.2 894.976 392.512 893.888q-10.688-1.024-21.248-2.56-10.56-1.6-20.992-3.712-10.496-2.048-20.864-4.672-10.368-2.56-20.608-5.696-10.24-3.072-20.288-6.656-10.048-3.648-19.84-7.68-9.92-4.096-19.584-8.704-9.6-4.544-19.072-9.6-9.408-4.992-18.56-10.496-9.216-5.504-18.048-11.456-8.96-5.952-17.472-12.288-8.576-6.4-16.832-13.12-8.32-6.784-16.192-13.952-7.936-7.168-15.488-14.72-7.552-7.552-14.72-15.488-7.168-7.936-13.952-16.192t-13.12-16.832q-6.4-8.576-12.288-17.472-5.952-8.832-11.456-18.048-5.504-9.152-10.496-18.56-5.056-9.408-9.6-19.072-4.608-9.6-8.64-19.52-4.096-9.856-7.68-19.904-3.648-10.112-6.72-20.288-3.136-10.24-5.76-20.608-2.56-10.368-4.608-20.864-2.112-10.432-3.648-20.992-1.6-10.56-2.624-21.248-1.088-10.624-1.6-21.248Q0 471.552 0 460.8t0.512-21.376q0.512-10.624 1.6-21.248 1.024-10.624 2.56-21.248 1.6-10.56 3.712-20.992 2.048-10.496 4.672-20.864 2.56-10.368 5.696-20.608 3.072-10.24 6.656-20.224 3.648-10.112 7.68-19.968 4.096-9.856 8.704-19.52 4.544-9.6 9.6-19.072 4.992-9.408 10.496-18.56 5.504-9.152 11.456-18.048 5.952-8.896 12.288-17.472 6.4-8.576 13.12-16.832 6.784-8.32 13.952-16.192t14.72-15.488q7.552-7.552 15.488-14.72 7.936-7.168 16.192-13.952t16.832-13.12q8.576-6.4 17.472-12.288 8.832-5.952 18.048-11.456 9.152-5.44 18.56-10.496t19.072-9.6q9.6-4.608 19.52-8.64 9.856-4.096 19.904-7.68 10.112-3.648 20.288-6.72 10.24-3.136 20.608-5.76 10.368-2.56 20.864-4.608 10.432-2.112 20.992-3.648 10.56-1.6 21.248-2.624 10.624-1.088 21.248-1.6 10.688-0.512 21.376-0.512z m0 102.4q8.192 0 16.32 0.384 8.192 0.384 16.32 1.216 8.128 0.768 16.192 1.984t16.064 2.816q8 1.6 16 3.584 7.872 1.92 15.68 4.352 7.808 2.368 15.488 5.12 7.68 2.752 15.296 5.888 7.552 3.072 14.912 6.592 7.36 3.52 14.592 7.36 7.168 3.84 14.208 8.064 7.04 4.16 13.76 8.704 6.848 4.48 13.44 9.408 6.528 4.864 12.8 10.048 6.336 5.12 12.416 10.688 6.016 5.44 11.776 11.264 5.76 5.76 11.264 11.776 5.504 6.08 10.688 12.416 5.184 6.272 10.048 12.8 4.864 6.592 9.408 13.44 4.48 6.784 8.704 13.76 4.224 7.04 8.064 14.208 3.84 7.232 7.36 14.592 3.456 7.36 6.592 14.912 3.2 7.552 5.888 15.232 2.752 7.68 5.12 15.552 2.368 7.808 4.352 15.744 1.984 7.872 3.584 15.936 1.6 8 2.816 16.064 1.216 8.064 1.984 16.192 0.832 8.128 1.216 16.32 0.384 8.128 0.384 16.32t-0.384 16.32q-0.384 8.192-1.216 16.32-0.768 8.128-1.984 16.192t-2.816 16.064q-1.6 8-3.584 16-1.92 7.872-4.352 15.68-2.368 7.808-5.12 15.552-2.752 7.68-5.888 15.232t-6.592 14.912q-3.52 7.36-7.36 14.592-3.84 7.168-8.064 14.208-4.16 7.04-8.704 13.76-4.544 6.848-9.408 13.44-4.864 6.528-10.048 12.8-5.184 6.336-10.688 12.416-5.44 6.016-11.264 11.776-5.76 5.76-11.776 11.264-6.08 5.504-12.416 10.688-6.272 5.184-12.8 10.048-6.592 4.864-13.44 9.408-6.784 4.48-13.76 8.704-7.04 4.224-14.208 8.064-7.232 3.84-14.592 7.36-7.36 3.52-14.912 6.592-7.552 3.2-15.296 5.888-7.68 2.752-15.488 5.12-7.808 2.368-15.744 4.352-7.936 1.984-15.936 3.584t-16.064 2.816q-8.064 1.216-16.192 1.984-8.128 0.832-16.32 1.216Q443.328 793.6 435.2 793.6t-16.32-0.384q-8.192-0.384-16.32-1.216-8.128-0.768-16.192-1.984t-16.064-2.816q-8.064-1.6-16-3.584-7.872-1.92-15.68-4.352-7.808-2.368-15.552-5.12-7.68-2.752-15.232-5.888-7.552-3.072-14.912-6.592-7.36-3.52-14.592-7.36-7.232-3.84-14.208-8.064-7.04-4.16-13.824-8.704-6.784-4.544-13.312-9.408-6.592-4.864-12.864-10.048-6.4-5.184-12.416-10.688-6.016-5.44-11.776-11.264-5.76-5.76-11.264-11.776-5.504-6.08-10.688-12.416-5.184-6.272-10.048-12.8-4.864-6.592-9.408-13.44-4.48-6.784-8.768-13.76-4.16-7.04-8-14.208-3.84-7.232-7.36-14.592-3.52-7.36-6.656-14.912-3.072-7.552-5.824-15.232t-5.12-15.552q-2.368-7.808-4.352-15.744-1.984-7.936-3.584-15.936t-2.816-16.064q-1.216-8.064-1.984-16.192-0.832-8.128-1.216-16.32-0.384-8.128-0.384-16.32t0.384-16.32q0.384-8.192 1.216-16.32 0.768-8.128 1.984-16.192t2.816-16.064q1.6-8.064 3.584-16 1.92-7.872 4.352-15.68 2.368-7.808 5.12-15.552 2.752-7.68 5.888-15.232 3.072-7.552 6.592-14.912 3.456-7.36 7.36-14.592 3.84-7.168 8-14.208 4.224-7.04 8.768-13.824 4.48-6.784 9.408-13.312 4.864-6.592 10.048-12.864 5.12-6.336 10.688-12.416 5.44-6.016 11.264-11.776 5.76-5.76 11.776-11.264 6.08-5.504 12.416-10.688 6.272-5.184 12.8-10.048 6.592-4.864 13.44-9.408 6.784-4.48 13.76-8.704 7.04-4.224 14.208-8.064 7.232-3.84 14.592-7.36 7.36-3.52 14.912-6.592 7.552-3.2 15.232-5.888 7.68-2.752 15.552-5.12 7.808-2.368 15.744-4.352 7.872-1.984 15.936-3.584 8-1.6 16.064-2.816 8.064-1.216 16.192-1.984 8.128-0.832 16.32-1.216 8.128-0.384 16.32-0.384zM773.12 195.2l214.656-214.592a51.2 51.2 0 0 0-72.384-72.384l-214.656 214.592z"  horiz-adv-x="1024" />
      
      <glyph glyph-name="weidu" unicode="&#58932;" d="M0 384a512 512 0 1 1 1024 0 512 512 0 1 1-1024 0Z"  horiz-adv-x="1024" />
      
      <glyph glyph-name="yonghu" unicode="&#58903;" d="M0 384a512 512 0 1 1 1024 0 512 512 0 1 1-1024 0ZM240.981333 82.773333h542.037334a271.018667 271.018667 0 1 1-542.037334 0zM361.386667 564.736a150.613333 150.613333 0 1 1 301.226666 0 150.613333 150.613333 0 1 1-301.226666 0Z"  horiz-adv-x="1024" />
      
      <glyph glyph-name="shuaxin" unicode="&#58904;" d="M825.6 89.08799999999997l-72.789333 71.68a12.8 12.8 0 0 1-21.589334-6.997333l-44.373333-256a12.8 12.8 0 0 1 15.018667-14.848l255.317333 48.384a12.8 12.8 0 0 1 6.570667 21.76l-80.042667 78.848A512 512 0 0 1 445.781333 891.733333a38.4 38.4 0 0 1-31.658666-46.762666c4.693333-22.016 26.282667-35.84 48.64-33.28a430.506667 430.506667 0 0 0 362.837333-722.602667zM284.501333 839.424a12.8 12.8 0 0 0 14.677334-15.018667L250.368 569.173333a12.8 12.8 0 0 0-21.674667-6.570666l-68.096 69.376a429.994667 429.994667 0 0 1 370.090667-677.546667 44.202667 44.202667 0 0 0 46.421333-36.949333 38.570667 38.570667 0 0 0-35.072-44.629334A512 512 0 0 0 102.4 691.2L21.333333 773.973333a12.8 12.8 0 0 0 6.997334 21.589334L284.501333 839.424z"  horiz-adv-x="1024" />
      
      <glyph glyph-name="bai" unicode="&#58906;" d="M131.392 172.416a169.984 169.984 0 0 1 170.112-169.92 169.984 169.984 0 0 1 170.048 169.92V342.4H301.44a169.984 169.984 0 0 1-170.112-169.984zM723.84 342.4H553.728v-169.984a169.984 169.984 0 0 1 170.112-169.92 169.984 169.984 0 1 1 0 339.84zM301.44 764.992a169.984 169.984 0 0 1 0-339.84h170.112V595.072A169.984 169.984 0 0 1 301.44 764.992zM893.888 595.072a169.984 169.984 0 0 1-170.048 169.92 169.984 169.984 0 0 1-170.112-169.92v-169.92h170.112a169.984 169.984 0 0 1 170.048 169.92z"  horiz-adv-x="1024" />
      
      <glyph glyph-name="lv" unicode="&#58907;" d="M131.392 172.416a169.984 169.984 0 0 1 170.112-169.92 169.984 169.984 0 0 1 170.048 169.92V342.4H301.44a169.984 169.984 0 0 1-170.112-169.984zM723.84 342.4H553.728v-169.984a169.984 169.984 0 0 1 170.112-169.92 169.984 169.984 0 1 1 0 339.84zM301.44 764.992a169.984 169.984 0 0 1 0-339.84h170.112V595.072A169.984 169.984 0 0 1 301.44 764.992zM893.888 595.072a169.984 169.984 0 0 1-170.048 169.92 169.984 169.984 0 0 1-170.112-169.92v-169.92h170.112a169.984 169.984 0 0 1 170.048 169.92z"  horiz-adv-x="1024" />
      
      <glyph glyph-name="bai-2" unicode="&#58908;" d="M727.68 503.552a27.52 27.52 0 0 0 8.32-19.968 27.52 27.52 0 0 0-8.32-20.032L531.648 264.448A26.688 26.688 0 0 0 512 256a26.688 26.688 0 0 0-19.712 8.448L296.32 463.552a27.52 27.52 0 0 0-8.32 20.032 27.52 27.52 0 0 0 8.32 19.968A26.688 26.688 0 0 0 315.968 512h392c7.616 0 14.144-2.816 19.712-8.448z"  horiz-adv-x="1024" />
      
      <glyph glyph-name="hei" unicode="&#58909;" d="M837.12 561.28a47.36 47.36 0 0 1-67.2 0l-256-256-256 256a47.36 47.36 0 0 1-64 0 46.72 46.72 0 0 1 0-64l288.64-288.64A44.8 44.8 0 0 1 512 192c12.8 0 24.96 4.992 33.92 14.08l288.64 288.64a46.72 46.72 0 0 1 2.56 66.56z"  horiz-adv-x="1024" />
      
      <glyph glyph-name="bai1" unicode="&#58911;" d="M837.12 561.28a47.36 47.36 0 0 1-67.2 0l-256-256-256 256a47.36 47.36 0 0 1-64 0 46.72 46.72 0 0 1 0-64l288.64-288.64A44.8 44.8 0 0 1 512 192c12.8 0 24.96 4.992 33.92 14.08l288.64 288.64a46.72 46.72 0 0 1 2.56 66.56z"  horiz-adv-x="1024" />
      
      <glyph glyph-name="hei-2" unicode="&#58913;" d="M727.68 503.552a27.52 27.52 0 0 0 8.32-19.968 27.52 27.52 0 0 0-8.32-20.032L531.648 264.448A26.688 26.688 0 0 0 512 256a26.688 26.688 0 0 0-19.712 8.448L296.32 463.552a27.52 27.52 0 0 0-8.32 20.032 27.52 27.52 0 0 0 8.32 19.968A26.688 26.688 0 0 0 315.968 512h392c7.616 0 14.144-2.816 19.712-8.448z"  horiz-adv-x="1024" />
      
      <glyph glyph-name="lv-2" unicode="&#58914;" d="M727.68 503.552a27.52 27.52 0 0 0 8.32-19.968 27.52 27.52 0 0 0-8.32-20.032L531.648 264.448A26.688 26.688 0 0 0 512 256a26.688 26.688 0 0 0-19.712 8.448L296.32 463.552a27.52 27.52 0 0 0-8.32 20.032 27.52 27.52 0 0 0 8.32 19.968A26.688 26.688 0 0 0 315.968 512h392c7.616 0 14.144-2.816 19.712-8.448z"  horiz-adv-x="1024" />
      
      <glyph glyph-name="lv1" unicode="&#58915;" d="M837.12 561.28a47.36 47.36 0 0 1-67.2 0l-256-256-256 256a47.36 47.36 0 0 1-64 0 46.72 46.72 0 0 1 0-64l288.64-288.64A44.8 44.8 0 0 1 512 192c12.8 0 24.96 4.992 33.92 14.08l288.64 288.64a46.72 46.72 0 0 1 2.56 66.56z"  horiz-adv-x="1024" />
      
      <glyph glyph-name="bai2" unicode="&#58916;" d="M874.666667 36.352a42.666667 42.666667 0 0 0-42.666667-42.666667h-597.333333a42.666667 42.666667 0 0 0-42.666667 42.666667v384H64L504.576 820.906667a42.666667 42.666667 0 0 0 57.429333 0l440.661334-400.554667h-128v-384z m-384 298.666667v-256h85.333333v256h-85.333333z"  horiz-adv-x="1024" />
      
      <glyph glyph-name="lv2" unicode="&#58917;" d="M874.666667 36.352a42.666667 42.666667 0 0 0-42.666667-42.666667h-597.333333a42.666667 42.666667 0 0 0-42.666667 42.666667v384H64L504.576 820.906667a42.666667 42.666667 0 0 0 57.429333 0l440.661334-400.554667h-128v-384z m-384 298.666667v-256h85.333333v256h-85.333333z"  horiz-adv-x="1024" />
      
      <glyph glyph-name="guanbi" unicode="&#58902;" d="M820.71824308 786.40374335L512.20075153 477.95654507 203.68325998 786.40374335A66.35691816 66.35691816 0 0 1 109.91193699 692.5621279L418.49972263 384.11492962l-308.58778564-308.51749154a66.4975047 66.4975047 0 0 1 21.43947079-108.46263126 66.35691816 66.35691816 0 0 1 72.40214547 14.62101581l308.58778483 308.51749155 308.44719827-308.51749155a66.35691816 66.35691816 0 0 1 93.77132217 93.84161545l-308.44719827 308.58778482 308.44719827 308.376905A66.35691816 66.35691816 0 0 1 820.71824308 786.40374335z"  horiz-adv-x="1024" />
      
      <glyph glyph-name="shaixuan" unicode="&#58895;" d="M759.68 311.552a27.52 27.52 0 0 0 8.32-19.968 27.52 27.52 0 0 0-8.32-20.032l-195.968-199.104A26.688 26.688 0 0 0 544 64a26.688 26.688 0 0 0-19.712 8.448L328.32 271.552A27.52 27.52 0 0 0 320 291.584a27.52 27.52 0 0 0 8.32 19.968A26.688 26.688 0 0 0 348.032 320h392c7.552 0 14.08-2.816 19.648-8.448zM328.32 456.448A27.52 27.52 0 0 0 320 476.416a27.52 27.52 0 0 0 8.32 20.032l195.968 199.104A26.688 26.688 0 0 0 544 704c7.552 0 14.144-2.816 19.712-8.448l195.968-199.104a27.52 27.52 0 0 0 8.32-20.032 27.52 27.52 0 0 0-8.32-19.968 26.688 26.688 0 0 0-19.648-8.448H347.904a26.688 26.688 0 0 0-19.648 8.448z"  horiz-adv-x="1024" />
      
      <glyph glyph-name="weizhi" unicode="&#58894;" d="M672.00000031 863.99999999H351.99999969a319.9999997 319.9999997 0 0 1-319.9999997-319.99999968v-320.00000062a319.9999997 319.9999997 0 0 1 319.9999997-319.9999997h320.00000062a319.9999997 319.9999997 0 0 1 319.9999997 319.9999997V544.00000031a319.9999997 319.9999997 0 0 1-319.9999997 319.9999997M792.00000031 784.00000031h-560.00000062a40.00000029 40.00000029 0 0 1-39.99999939-40.00000033v-719.99999999a40.00000029 40.00000029 0 0 1 39.99999939-40.0000003h560.00000062a40.00000029 40.00000029 0 0 1 39.99999936 40.0000003v719.99999999a40.00000029 40.00000029 0 0 1-39.99999936 40.00000033zM824.00000001 744.00000001q0 13.27999969-9.36000001 22.63999969Q805.27999997 775.99999969 792.00000031 775.99999969h-560.00000062q-13.27999969 0-22.63999969-9.36000002-9.36-9.36-9.36000001-22.63999969v-719.99999999q0-13.27999969 9.36000001-22.63999966 9.36-9.36 22.63999969-9.36000002h560.00000062q13.27999969 0 22.63999969 9.36000002 9.36 9.36 9.35999999 22.63999966v719.99999999z m16.00000031 0v-720.00000002q0-19.84000031-14.08000035-33.91999968-13.99999969-14.08000031-33.91999966-14.08000032h-560.00000062q-19.92000002 0-33.91999966 14.08000032-14.08000031 14.08000031-14.08000035 33.91999968v719.99999999q0 19.92000002 14.08000035 33.91999971Q212 792.00000001 231.99999969 792.00000001h560.00000062q19.92000002 0 33.9199997-14.08000032 14.08000031-13.99999969 14.08000031-33.91999968zM912.00000031 103.99999968999998v560.00000062a40.00000029 40.00000029 0 0 1-40.00000033 39.99999939h-719.99999999a40.00000029 40.00000029 0 0 1-40.0000003-39.99999939v-560.00000062a40.00000029 40.00000029 0 0 1 40.0000003-39.99999936h719.99999999a40.00000029 40.00000029 0 0 1 40.00000033 39.99999936zM872.00000001 71.99999998999999q13.27999969 0 22.63999969 9.36000001 9.36 9.36 9.35999999 22.63999969v560.00000062q0 13.27999969-9.35999999 22.63999969-9.36 9.36-22.63999969 9.35999999h-720.00000002q-13.27999969 0-22.63999969-9.35999999-9.36-9.36-9.35999999-22.63999969v-560.00000062q0-31.99999969 31.99999968-31.9999997h719.99999999z m0-16.00000031h-720.00000002q-19.84000031 0-33.91999968 14.08000035Q103.99999999 84 103.99999999 103.99999968999998v560.00000062q0 19.84000031 14.08000032 33.9199997T151.99999999 712.0000003h719.99999999q19.92000002 0 33.91999971-14.08000029 14.08000031-14.08000031 14.08000029-33.9199997v-560.00000062q0-19.92000002-14.08000029-33.91999966-13.99999969-14.08000031-33.91999968-14.08000035zM831.9999997 744.00000001H192.0000003a40.00000029 40.00000029 0 0 1-40.00000031-40.00000031v-639.99999937a40.00000029 40.00000029 0 0 1 40.00000031-40.00000034h639.99999937a40.00000029 40.00000029 0 0 1 40.00000034 40.00000031V703.9999997a40.00000029 40.00000029 0 0 1-40.00000031 40.00000031zM864.00000032 703.9999997q0 31.99999969-32.00000065 32.00000062H192.0000003q-13.27999969 0-22.64000061-9.36000001Q159.99999968 717.28000033 159.99999968 703.9999997v-639.9999994q0-13.27999969 9.36000001-22.64000061 9.36-9.36 22.64000064-9.36000001h639.99999934q31.99999969 0 32.00000065 32.00000062V703.9999997z m15.99999937 0v-639.99999937q0-19.92000002-14.07999937-33.92000065-13.99999969-14.08000031-33.92000065-14.07999937H192.0000003q-19.92000002 0-33.9200006 14.07999937Q144.00000031 43.99999969999999 144.00000031 64.00000030000001V703.9999997q0 19.92000002 14.07999937 33.9200006Q171.9999997 751.99999969 192.0000003 751.99999969h639.9999994q19.92000002 0 33.92000062-14.07999937 14.08000031-13.99999969 14.07999937-33.92000062zM912.00000031 384q0-9.83999999-0.48-19.60000032-0.48-9.83999999-1.44-19.59999937-0.96000001-9.76000031-2.4-19.52000062-1.44000001-9.67999969-3.35999999-19.27999971-1.92-9.6-4.32-19.19999998-2.39999999-9.52000031-5.20000032-18.88000031-2.88000002-9.43999969-6.16000031-18.63999939-3.36-9.28000031-7.11999938-18.40000031-3.76000031-9.04000031-8.00000062-17.9200003-4.15999969-8.80000031-8.79999938-17.52-4.55999999-8.64000003-9.6-17.04-5.04-8.47999969-10.55999999-16.63999969-5.44000032-8.16-11.28-16.0000003-5.83999969-7.92000001-12.08000063-15.51999938t-12.79999969-14.88000001q-6.64000031-7.2-13.60000032-14.15999999-6.88000031-6.96000001-14.15999999-13.60000032-7.27999969-6.55999969-14.88000001-12.79999969t-15.51999936-12.08000056q-7.84000031-5.83999969-16.00000032-11.28000007-8.16-5.44000032-16.63999969-10.55999999-8.4-5.04-17.04-9.6-8.64000003-4.63999969-17.60000062-8.79999938-8.80000031-4.2400003-17.91999938-8.00000062-9.04000031-3.76000031-18.32000061-7.11999938-9.19999969-3.28000033-18.63999939-6.16000031-9.36-2.80000031-18.88000031-5.20000032-9.6-2.39999999-19.20000002-4.31999997t-19.27999967-3.36000002q-9.76000031-1.44000001-19.52000062-2.4t-19.59999941-1.44Q521.83999999-16.00000031000002 512-16.00000031000002t-19.60000032 0.48q-9.83999999 0.48-19.59999937 1.44-9.76000031 0.96000001-19.52000062 2.4-9.67999969 1.44000001-19.27999971 3.35999999-9.6 1.92-19.19999998 4.32-9.52000031 2.39999999-18.88000031 5.20000032-9.43999969 2.88000002-18.63999939 6.16000031-9.28000031 3.36-18.40000031 7.11999938-9.04000031 3.76000031-17.9200003 8.00000062-8.80000031 4.15999969-17.52 8.79999938-8.64000003 4.55999999-17.11999969 9.6-8.4 5.11999968-16.56 10.55999999t-16.0000003 11.28q-7.99999969 5.83999969-15.51999938 12.08000063-7.60000032 6.24-14.88000001 12.79999969-7.2 6.64000031-14.24000063 13.60000032-6.88000031 6.88000031-13.51999968 14.15999999-6.55999969 7.27999969-12.79999969 14.88000001t-12.08000056 15.51999936q-5.83999969 7.84000031-11.28000007 16.00000032-5.52 8.16-10.55999999 16.63999969-5.04 8.4-9.6 17.04-4.63999969 8.64000003-8.88 17.60000062-4.15999969 8.80000031-7.99999964 17.91999938-3.67999969 9.04000031-7.03999974 18.32000061-3.28000033 9.19999969-6.16000031 18.63999939-2.80000031 9.36-5.20000032 18.88000031-2.39999999 9.6-4.31999997 19.20000002t-3.36000002 19.27999967q-1.44000001 9.76000031-2.4 19.52000062t-1.44 19.59999941Q111.99999969 374.16000001 111.99999969 384t0.48 19.60000032q0.48 9.83999999 1.44 19.59999937 0.96000001 9.76000031 2.4 19.52000062 1.44000001 9.67999969 3.35999999 19.35999938 1.92 9.6 4.32 19.12000031t5.20000032 18.88000031q2.88000002 9.43999969 6.16000031 18.71999999 3.36 9.19999969 7.11999938 18.24000001 3.76000031 9.12 7.92 18 4.2400003 8.80000031 8.80000031 17.59999969 4.63999969 8.56000032 9.67999969 17.04 5.04 8.4 10.55999999 16.56 5.44000032 8.16 11.20000032 16.0000003 5.92000031 7.99999969 12.16000031 15.51999938 6.24 7.60000032 12.79999969 14.88000001 6.64000031 7.2 13.60000032 14.24000061 6.88000031 6.88000031 14.15999999 13.5199997 7.27999969 6.55999969 14.88000001 12.79999969t15.43999969 12.08000056q7.99999969 5.83999969 16.07999999 11.28000007 8.16 5.52 16.56 10.55999999 8.47999969 5.04 17.11999969 9.6 8.64000003 4.72000031 17.60000062 8.88 8.80000031 4.15999969 17.91999938 7.99999964 9.04000031 3.67999969 18.32000061 7.03999974 9.19999969 3.28000033 18.63999939 6.16000031 9.36 2.80000031 18.88000031 5.20000032 9.6 2.39999999 19.19999998 4.31999997t19.27999971 3.36000002q9.76000031 1.44000001 19.52000062 2.4t19.59999941 1.44Q502.16000001 784.00000031 512 784.00000031t19.60000032-0.48q9.83999999-0.48 19.59999937-1.44 9.76000031-0.96000001 19.52000062-2.4 9.67999969-1.44000001 19.27999971-3.35999999 9.6-1.92 19.19999998-4.32 9.52000031-2.39999999 18.88000031-5.20000032 9.43999969-2.88000002 18.63999939-6.16000031 9.28000031-3.36 18.40000031-7.11999938 9.04000031-3.76000031 17.9200003-7.92 8.80000031-4.15999969 17.52-8.80000031 8.64000003-4.63999969 17.04-9.67999969 8.47999969-5.04 16.63999969-10.55999999 8.16-5.44000032 16.0000003-11.20000032 7.99999969-5.92000031 15.51999938-12.16000031 7.60000032-6.24 14.88000001-12.79999969 7.2-6.64000031 14.24000063-13.60000032 6.88000031-6.88000031 13.51999968-14.15999999 6.55999969-7.27999969 12.79999969-14.88000001t12.08000056-15.43999969q5.83999969-7.92000001 11.28000007-16.07999999 5.52-8.16 10.55999999-16.56 5.04-8.47999969 9.6-17.11999969 4.63999969-8.64000003 8.79999938-17.60000062 4.2400003-8.80000031 8.00000062-17.91999938 3.76000031-9.04000031 7.11999938-18.24000001 3.28000033-9.28000031 6.16000031-18.71999999 2.80000031-9.36 5.20000032-18.88000031 2.39999999-9.6 4.31999997-19.19999998t3.36000002-19.27999971q1.44000001-9.76000031 2.4-19.52000062t1.44-19.59999941Q912.00000031 393.83999999 912.00000031 384zM120.00000031 384q0-162.40000031 114.79999969-277.2T512-7.9999996899999815q162.40000031 0 277.2 114.79999969T903.99999969 384q0 162.40000031-114.79999969 277.2T512 775.99999969q-162.40000031 0-277.2-114.79999969T120.00000031 384zM103.99999999 384q0 169.03999971 119.52 288.48000001Q342.96000029 792.00000001 512 792.00000001q168.96000001 0 288.48000001-119.52Q920.00000001 553.0399997100001 920.00000001 384q0-168.96000001-119.52-288.48000001Q680.96000001-24.000000010000008 512-24.000000010000008q-169.03999971 0-288.48000001 119.52Q103.99999999 215.03999998999996 103.99999999 384zM504.00000031-95.99999998999999V863.99999999h15.99999938v-959.99999998h-15.99999938zM672.00000031 384q0-7.84000031-0.80000062-15.67999969t-2.23999969-15.52000032q-1.60000031-7.68-3.84000001-15.1999997-2.32000031-7.60000032-5.27999999-14.80000029-3.04000031-7.27999969-6.72000001-14.23999969-3.67999969-6.88000031-8.08000031-13.44000001-4.39999969-6.55999969-9.35999999-12.64000026-4.96000033-6.07999969-10.56000001-11.59999974-5.59999969-5.59999969-11.59999972-10.55999999-6.07999969-4.96000033-12.64000026-9.35999999-6.55999969-4.32-13.44000001-8.00000062-6.96000001-3.76000031-14.23999969-6.7999997-7.2-2.95999969-14.71999967-5.28000001-7.51999969-2.23999969-15.20000064-3.7600003-7.75999969-1.60000031-15.6-2.40000002Q519.84000031 223.99999968999998 512 223.99999968999998t-15.67999969 0.80000062q-7.84000031 0.79999967-15.52000032 2.31999938-7.75999969 1.51999969-15.1999997 3.7600003-7.60000032 2.32000031-14.80000029 5.28000001-7.27999969 3.04000031-14.23999969 6.72000001-6.88000031 3.76000031-13.44000001 8.08000031-6.55999969 4.39999969-12.64000026 9.35999999-6.07999969 4.96000033-11.59999974 10.56000001-5.59999969 5.59999969-10.55999999 11.59999972-4.96000033 6.07999969-9.35999999 12.64000026-4.39999969 6.55999969-8.00000062 13.44000001-3.76000031 6.96000001-6.7999997 14.23999969-2.95999969 7.2-5.28000001 14.80000032-2.23999969 7.51999969-3.83999999 15.19999967-1.51999969 7.68-2.23999969 15.52000032Q351.99999969 376.15999968999995 351.99999969 384t0.80000062 15.67999969q0.79999967 7.84000031 2.23999969 15.52000032 1.60000031 7.75999969 3.84000001 15.1999997 2.32000031 7.60000032 5.27999999 14.80000029 3.04000031 7.27999969 6.72000001 14.23999969 3.67999969 6.96000001 8.08000031 13.44000001 4.39999969 6.55999969 9.35999999 12.64000026 4.96000033 6.07999969 10.56000001 11.59999974 5.59999969 5.59999969 11.59999972 10.55999999 6.07999969 4.96000033 12.64000026 9.35999999 6.55999969 4.39999969 13.44000001 8.00000062 6.96000001 3.76000031 14.23999969 6.7999997 7.2 2.95999969 14.71999967 5.28000001 7.51999969 2.23999969 15.20000064 3.83999999 7.75999969 1.51999969 15.6 2.23999969Q504.15999969 544.00000031 512 544.00000031t15.67999969-0.80000062q7.84000031-0.79999967 15.52000032-2.23999969 7.75999969-1.60000031 15.1999997-3.84000001 7.60000032-2.32000031 14.80000029-5.27999999 7.27999969-3.04000031 14.23999969-6.72000001 6.88000031-3.67999969 13.44000001-8.08000031 6.55999969-4.39999969 12.64000026-9.35999999 6.07999969-4.96000033 11.59999974-10.56000001 5.59999969-5.59999969 10.55999999-11.59999972 4.96000033-6.07999969 9.35999999-12.64000026 4.39999969-6.47999998 8.00000062-13.44000001 3.76000031-6.96000001 6.7999997-14.23999969 2.95999969-7.2 5.28000001-14.71999967 2.23999969-7.51999969 3.83999999-15.20000064 1.51999969-7.75999969 2.23999969-15.6Q672.00000031 391.84000031 672.00000031 384zM360.00000031 384q0-62.95999969 44.47999968-107.44000031Q449.04000031 232.00000031000002 512 232.00000031000002t107.44000031 44.55999938Q663.99999969 321.04000031 663.99999969 384q0 62.95999969-44.55999938 107.52000001Q574.95999969 535.99999969 512 535.99999969q-62.95999969 0-107.52000001-44.47999968Q360.00000031 446.95999969 360.00000031 384z m-16.00000033 0q0 69.6 49.20000003 118.79999999Q442.4 551.99999999 512 551.99999999q69.6 0 118.79999999-49.19999997Q679.99999999 453.6 679.99999999 384q0-69.6-49.19999997-118.79999999Q581.6 216.00000001 512 216.00000001q-69.6 0-118.79999999 49.19999997Q344.00000001 314.4 344.00000001 384zM991.99999999 376.00000031H32.00000001v15.99999938h959.99999998v-15.99999938zM971.36000001-86.64000001L48.79999999 835.84000031 60.15999969 847.12000031l922.48000028-922.40000061-11.27999996-11.35999971zM975.20000001 835.84000031L60.08-79.12000031000002l-11.27999999 11.28L963.84000031 847.12000031l11.28-11.28z"  horiz-adv-x="1024" />
      
      <glyph glyph-name="wenhaozhuyi" unicode="&#59007;" d="M512 384m-450.56 0a450.56 450.56 0 1 1 901.12 0 450.56 450.56 0 1 1-901.12 0ZM544.37888 266.15808000000004v5.632c0 31.17056 15.31904 60.12928 40.67328 77.0048 52.16256 34.7136 80.54784 75.53024 80.54784 122.59328C665.6 558.85824 596.84864 629.76 512 629.76s-153.6-70.90176-153.6-158.37184c0-18.41152 14.4384-33.3824 32.37888-33.3824 17.83808 0 32.3584 14.86848 32.3584 33.3824 0 50.66752 39.81312 91.70944 88.96512 91.70944 49.152 0 88.94464-41.04192 88.94464-91.70944 0-20.72576-15.42144-42.94656-50.91328-66.56-43.78624-29.16352-70.30784-79.2576-70.30784-133.03808v-5.632c0-18.41152 14.41792-33.3824 32.27648-33.3824 17.73568 0.08192 32.17408 14.97088 32.27648 33.3824z m-68.21888-111.8208c0-20.23424 16.09728-36.57728 35.84-36.57728 19.82464 0 35.84 16.42496 35.84 36.5568 0 20.23424-16.01536 36.57728-35.84 36.6592-19.82464 0-35.84-16.42496-35.84-36.6592z"  horiz-adv-x="1024" />
      
      <glyph glyph-name="POD" unicode="&#58912;" d="M512 315.733333c-2.133333 0-4.266667 0-4.266667 2.133334L277.333333 430.933333c-4.266667 2.133333-6.4 8.533333-4.266666 14.933334 2.133333 4.266667 8.533333 6.4 14.933333 4.266666L512 339.20000000000005l224 113.066667c4.266667 2.133333 10.666667 0 14.933333-4.266667 2.133333-4.266667 0-10.666667-4.266666-14.933333l-230.4-115.2c0-2.133333-2.133333-2.133333-4.266667-2.133334zM512 29.866667000000007c-6.4 0-10.666667 4.266667-10.666667 10.666666V326.4c0 6.4 4.266667 10.666667 10.666667 10.666667s10.666667-4.266667 10.666667-10.666667v-285.866667c0-6.4-4.266667-10.666667-10.666667-10.666666zM742.4-85.33333300000004c-2.133333 0-4.266667 0-4.266667 2.133333L512 27.733333000000016 288-85.33333300000004H277.333333L49.066667 25.600000000000023c-4.266667 0-6.4 4.266667-6.4 8.533333V326.4c0 4.266667 2.133333 8.533333 6.4 8.533333L273.066667 448V727.466667c0 4.266667 2.133333 8.533333 6.4 8.533333l230.4 115.2c2.133333 2.133333 6.4 2.133333 8.533333 0L746.666667 738.133333c4.266667-2.133333 6.4-6.4 6.4-8.533333V448l224-110.933333c4.266667-2.133333 6.4-6.4 6.4-8.533334v-292.266666c0-4.266667-2.133333-8.533333-6.4-10.666667L746.666667-85.33333300000004h-4.266667zM512 51.200000000000045c2.133333 0 4.266667 0 4.266667-2.133333L740.266667-64 960 40.53333299999997V320l-224 110.933333c-4.266667 2.133333-6.4 6.4-6.4 8.533334V721.066667L512 829.866667 294.4 721.066667v-279.466667c0-4.266667-2.133333-8.533333-6.4-8.533333L64 320v-279.466667L281.6-64l224 113.066667c2.133333 2.133333 4.266667 2.133333 6.4 2.133333zM281.6 441.6z"  horiz-adv-x="1024" />
      
      <glyph glyph-name="a-zuojiantouzhixiangzuojiantou" unicode="&#58893;" d="M143 434h800c27.6 0 50-22.4 50-50s-22.4-50-50-50H143c-27.6 0-50 22.4-50 50s22.4 50 50 50zM116.4 412.7l212.1-212.1c19.5-19.5 19.5-51.2 0-70.7s-51.2-19.5-70.7 0L45.6 342c-19.5 19.5-19.5 51.2 0 70.7 19.6 19.6 51.2 19.6 70.8 0zM328.5 567.4L116.4 355.3c-19.5-19.5-51.2-19.5-70.7 0s-19.5 51.2 0 70.7l212.1 212.1c19.5 19.5 51.2 19.5 70.7 0s19.5-51.2 0-70.7z"  horiz-adv-x="1024" />
      
      <glyph glyph-name="shangjiantou" unicode="&#58890;" d="M481.834667 563.498667a42.666667 42.666667 0 0 0 57.621333 2.496l2.709333-2.496 298.666667-298.666667a42.666667 42.666667 0 0 0-57.621333-62.826667l-2.709334 2.496L512 472.96 243.498667 204.501333a42.666667 42.666667 0 0 0-57.621334-2.496l-2.709333 2.496a42.666667 42.666667 0 0 0-2.496 57.621334l2.496 2.709333 298.666667 298.666667z"  horiz-adv-x="1024" />
      
      <glyph glyph-name="xiajiantou" unicode="&#58892;" d="M183.168 563.498667a42.666667 42.666667 0 0 0 57.621333 2.496l2.709334-2.496L512 295.04l268.501333 268.48a42.666667 42.666667 0 0 0 57.621334 2.496l2.709333-2.496a42.666667 42.666667 0 0 0 2.496-57.621333l-2.496-2.709334-298.666667-298.666666a42.666667 42.666667 0 0 0-57.621333-2.496l-2.709333 2.496-298.666667 298.666666a42.666667 42.666667 0 0 0 0 60.330667z"  horiz-adv-x="1024" />
      
      <glyph glyph-name="shujuzhuanhuang" unicode="&#59201;" d="M624 344h176c17.674 0 32-14.328 32-32v-176c0-17.672-14.326-32-32-32h-176c-17.674 0-32 14.328-32 32v176c0 17.672 14.326 32 32 32zM312 544m-120 0a120 120 0 1 1 240 0 120 120 0 1 1-240 0ZM802 514H562c-16.568 0-30 13.432-30 30s13.432 30 30 30h240c16.568 0 30-13.432 30-30s-13.432-30-30-30zM802 514a29.892 29.892 0 0 0-21.212 8.788l-73.54 73.54c-11.716 11.716-11.716 30.71 0 42.426 11.714 11.716 30.71 11.716 42.426 0l73.54-73.54c11.716-11.716 11.716-30.71 0-42.426A29.9 29.9 0 0 0 802 514zM728.46 440.46a29.892 29.892 0 0 0-21.212 8.788c-11.716 11.716-11.716 30.71 0 42.426l73.54 73.54c11.714 11.716 30.71 11.716 42.426 0 11.716-11.716 11.716-30.71 0-42.426l-73.54-73.54a29.9 29.9 0 0 0-21.214-8.788zM462 194H222c-16.568 0-30 13.432-30 30s13.432 30 30 30h240c16.568 0 30-13.432 30-30s-13.432-30-30-30zM222 194a29.9 29.9 0 0 0-21.212 8.788c-11.716 11.714-11.716 30.71 0 42.426l73.54 73.54c11.714 11.714 30.71 11.714 42.426 0 11.716-11.714 11.716-30.71 0-42.426l-73.54-73.54A29.908 29.908 0 0 0 222 194zM295.54 120.46000000000004a29.9 29.9 0 0 0-21.212 8.788l-73.54 73.54c-11.716 11.714-11.716 30.71 0 42.426 11.714 11.714 30.71 11.714 42.426 0l73.54-73.54c11.716-11.714 11.716-30.71 0-42.426a29.916 29.916 0 0 0-21.214-8.788z"  horiz-adv-x="1024" />
      
      <glyph glyph-name="zhuanhuan" unicode="&#58954;" d="M99.119848 467.997912h828.014506a43.350032 43.350032 0 0 1 43.350032 43.350031 43.248882 43.248882 0 0 1-16.451337 33.957525 43.465632 43.465632 0 0 1-9.219107 8.756707L635.50424 771.130234a43.350032 43.350032 0 1 1-49.809186-70.964002l207.270952-145.461032H99.119848a43.350032 43.350032 0 0 1 0-86.707288zM927.134354 294.92291H99.119848a43.350032 43.350032 0 0 1-43.350032-43.350032 43.205532 43.205532 0 0 1 16.451337-33.9503c2.564877-3.272927 5.635504-6.242405 9.219107-8.756706l309.309701-217.075284a43.313907 43.313907 0 0 1 60.386594 10.584632 43.350032 43.350032 0 0 1-10.577407 60.386595L233.288196 208.222846h693.846158a43.350032 43.350032 0 0 1 0 86.700064z"  horiz-adv-x="1024" />
      
      <glyph glyph-name="tool" unicode="&#58941;" d="M976.16 68.128l0.672 0.384-346.496 347.904 157.28 157.28 140.48 90.528 55.84 100.416-64.896 64.992-100.416-55.936-90.624-140.448-157.088-157.152-155.872 156.512-0.704 206.752-211.328 56.64-22.624-22.464 112.416-112.288-109.6-109.824-112.32 112.224-22.624-22.368 56.736-211.36 201.088-0.512-1.216-1.312 158.816-159.456-58.72-58.752-38.528 38.464-59.424-59.456 18.464-18.368c-53.376-20.448-200.672-167.776-221.152-221.088l-18.368 18.4-59.328-59.456 136.384-136.384 59.456 59.488-18.56 18.464c53.376 20.288 200.768 167.744 221.152 221.024l18.4-18.496 59.424 59.488-38.464 38.496 58.56 58.592 346.304-347.68 0.608 0.448c29.536-28.576 76.64-28.608 105.504 0.576 29.184 29.056 29.28 76.064 0.704 105.728zM947.616-9.632c-12.992-12.992-34.016-13.152-47.136 0-12.8 12.992-12.992 33.888-0.096 47.072 13.216 12.992 34.144 12.992 47.232 0 13.152-12.96 13.152-33.952 0-47.072z"  horiz-adv-x="1024" />
      
      <glyph glyph-name="shijian" unicode="&#58886;" d="M512 832C256 832 51.2 624 51.2 371.2s208-460.8 460.8-460.8 460.8 208 460.8 460.8S768 832 512 832z m0-876.8C284.8-44.8 99.2 140.8 99.2 368S284.8 780.8 512 780.8 924.8 595.2 924.8 368 742.4-44.8 512-44.8zM809.6 352H531.2V633.6c0 12.8-9.6 22.4-22.4 22.4-12.8 0-22.4-9.6-22.4-22.4v-307.2c0-12.8 9.6-22.4 22.4-22.4h300.8c12.8 0 22.4 9.6 22.4 22.4 0 16-9.6 25.6-22.4 25.6z"  horiz-adv-x="1024" />
      
      <glyph glyph-name="shangyiyehoutuifanhui-xianxingyuankuang" unicode="&#59632;" d="M512 832C264.8 832 64 631.2 64 384s200.8-448 448-448 448 200.8 448 448S759.2 832 512 832z m0-832c-212 0-384 172-384 384s172 384 384 384 384-172 384-384-172-384-384-384z m158.4 610.4L444 384l226.4-226.4-44.8-45.6-272 272 272 272 44.8-45.6z"  horiz-adv-x="1024" />
      
      <glyph glyph-name="user-fill" unicode="&#59349;" d="M512 384c123.776 0 224 100.224 224 224S635.776 832 512 832a223.936 223.936 0 0 1-224-224C288 484.224 388.224 384 512 384z m0-64c-149.504 0-448-85.76-448-256v-128h896v128c0 170.24-298.496 256-448 256z"  horiz-adv-x="1024" />
      
      <glyph glyph-name="xiaoyoujiantou" unicode="&#60969;" d="M972.8 384l-204.8 153.6v-102.4H51.2v-102.4h716.8v-102.4l204.8 153.6z"  horiz-adv-x="1024" />
      
      <glyph glyph-name="xiaozuojiantou" unicode="&#60970;" d="M51.2 384l204.8 153.6v-102.4h716.8v-102.4H256v-102.4l-204.8 153.6z"  horiz-adv-x="1024" />
      
      <glyph glyph-name="androidgengduo" unicode="&#59277;" d="M415.930119 672.209642c0 52.980346 43.003528 95.983874 95.983874 95.983874s95.983874-43.003528 95.983874-95.983874-43.003528-95.983874-95.983874-95.983874S415.930119 619.229296 415.930119 672.209642zM415.930119 384.258021c0 52.980346 43.003528 95.983874 95.983874 95.983874s95.983874-43.003528 95.983874-95.983874-43.003528-95.983874-95.983874-95.983874S415.930119 331.277675 415.930119 384.258021zM415.930119 96.134386c0 52.980346 43.003528 95.983874 95.983874 95.983874s95.983874-43.003528 95.983874-95.983874-43.003528-95.983874-95.983874-95.983874S415.930119 43.326054 415.930119 96.134386z"  horiz-adv-x="1024" />
      
      <glyph glyph-name="shujuku" unicode="&#58901;" d="M512 96c-247.42 0-448 71.63-448 160v-160c0-88.37 200.58-160 448-160s448 71.63 448 160V256c0-88.37-200.58-160-448-160zM512 288c-247.42 0-448 71.63-448 160v-160c0-88.37 200.58-160 448-160s448 71.63 448 160V448c0-88.37-200.58-160-448-160zM512 480c-247.42 0-448 71.63-448 160v-160c0-88.37 200.58-160 448-160s448 71.63 448 160V640c0-88.37-200.58-160-448-160zM64 672a448 160 0 1 1 896 0 448 160 0 1 1-896 0Z"  horiz-adv-x="1024" />
      
      <glyph glyph-name="search" unicode="&#59052;" d="M1001.526404-95.699618C999.922771-90.822379 999.922771-90.822379 998.661741-88.531443 997.556333-86.547938 996.293839-84.724943 994.702325-82.653549 992.500075-79.787264 989.423708-76.169135 985.358477-71.619563 978.223881-63.634933 967.82403-52.546074 954.04227-38.18551 932.495573-15.733901 910.909628 6.315748 858.479859 59.608002 806.561909 112.380015 784.782022 134.629598 763.425645 156.886537 750.035742 170.841067 739.986204 181.558483 733.331893 189.006633 730.0273 192.705455 727.65239 195.498419 726.365602 197.171678 727.222236 195.561131 727.222236 195.561131 728.57702 191.58121 730.685899 184.086517 730.685899 184.086517 721.610157 166.825982 803.853596 246.08394 851.33145 356.012949 851.33145 473.600226 851.33145 706.88518 665.530044 896 436.332393 896 207.134741 896 21.333333 706.88518 21.333333 473.600226 21.333333 240.315273 207.134741 51.200452 436.332393 51.200452 441.356706 51.200452 446.556279 51.43584 452.347883 51.88233 456.487002 52.201425 460.079727 52.545845 466.651669 53.223196 479.958906 54.594731 484.804847 54.985431 490.397372 54.985442 499.896397 54.985459 514.964663 58.353071 537.39015 64.570334 540.021178 65.299761 542.719546 66.061295 545.476431 66.851597 553.976567 69.288288 562.667765 71.891529 571.097184 74.494202 576.160226 76.057472 580.026436 77.278086 582.233225 77.986769 595.480279 82.240892 602.830912 96.619906 598.651326 110.103196 594.471738 123.586485 580.344653 131.068205 567.097598 126.81408 565.058735 126.159326 561.367413 124.993926 556.494825 123.489461 548.364858 120.979245 539.986116 118.469596 531.839533 116.134255 529.217662 115.382658 526.657771 114.660205 524.170112 113.970524 506.936476 109.192655 493.480702 106.185421 490.397278 106.185414 482.458716 106.185399 476.720548 105.722765 461.583853 104.162671 455.416051 103.526976 452.140828 103.212992 448.548723 102.936068 443.933724 102.580286 439.960704 102.400425 436.332393 102.400425 234.916275 102.400425 71.63625 268.592237 71.63625 473.600226 71.63625 678.608215 234.916275 844.800027 436.332393 844.800027 637.74851 844.800027 801.028533 678.608215 801.028533 473.600226 801.028533 370.224557 759.336083 273.690923 687.025254 204.005013 677.769918 186.436971 677.769918 186.436971 679.976768 178.37293 681.566101 173.694818 681.566101 173.694818 682.808947 171.449702 683.910231 169.488343 685.170219 167.673308 686.754421 165.613308 688.964348 162.739657 692.047349 159.113956 696.115554 154.560425 703.261474 146.562018 713.66454 135.467582 727.438434 121.112866 749.001325 98.640706 770.84669 76.324235 822.916311 23.398054 875.194278-29.7399 896.716879-51.724843 918.057933-73.962174 931.455439-87.922347 941.502012-98.634524 948.144469-106.068378 951.440527-109.757135 953.805218-112.538259 955.077419-114.194061 954.139053-112.441707 954.139053-112.441707 952.75811-108.249822 950.686453-100.172693 950.686453-100.172693 960.850534-82.849743 950.24269-91.977788 948.913429-108.130236 957.881542-118.927251 966.849655-129.724265 982.719104-131.077231 993.326948-121.949188 1003.683753-104.332838 1003.683753-104.332838 1001.526404-95.699618Z"  horiz-adv-x="1024" />
      
      <glyph glyph-name="setting" unicode="&#58910;" d="M846.416977 474.845031c-7.857968 29.366841-19.485797 57.192583-34.354436 82.913385l65.271586 98.513688-0.107447 0.107447-92.849688 92.848665-0.107447 0.107447-98.513688-65.271586c-25.718755 14.869662-53.544497 26.495444-82.912361 34.355459L579.340199 834.219935l-0.152473 0L447.877075 834.219935l-0.151449 0-23.502273-115.801423c-29.366841-7.858992-57.192583-19.485797-82.914408-34.355459l-98.513688 65.271586-0.107447-0.107447-92.849688-92.849688-0.107447-0.107447 65.272609-98.513688c-14.869662-25.720801-26.495444-53.546543-34.355459-82.913385L64.848449 451.342758l0-0.152473 0-131.309628 0-0.151449 115.801423-23.50125c7.860015-29.365818 19.485797-57.192583 34.355459-82.913385l-65.271586-98.514711 0.107447-0.106424 92.849688-92.848665 0.107447-0.107447 98.513688 65.271586c25.720801-14.869662 53.546543-26.495444 82.914408-34.355459l23.502273-115.801423 0.152473 0 131.309628 0 0.151449 0 23.502273 115.801423c29.366841 7.860015 57.192583 19.485797 82.912361 34.355459l98.513688-65.271586 0.107447 0.107447 92.850711 92.848665 0.107447 0.106424-65.272609 98.514711c14.870686 25.720801 26.497491 53.546543 34.354436 82.913385l115.802446 23.50125 0 0.152473L962.220447 451.191308l0 0.151449L846.416977 474.845031zM669.350213 385.534959c0-86.054935-69.761853-155.815765-155.817812-155.815765-86.054935 0-155.818835 69.76083-155.818835 155.815765 0 86.055958 69.762877 155.816788 155.818835 155.816788C599.589382 541.351748 669.350213 471.590917 669.350213 385.534959z"  horiz-adv-x="1024" />
      
      <glyph glyph-name="information" unicode="&#59631;" d="M554.666667 512 469.333333 512 469.333333 597.333333 554.666667 597.333333M554.666667 170.666667 469.333333 170.666667 469.333333 426.666667 554.666667 426.666667M512 810.666667C276.48 810.666667 85.333333 619.52 85.333333 384 85.333333 148.48 276.48-42.666667 512-42.666667 747.52-42.666667 938.666667 148.48 938.666667 384 938.666667 619.52 747.52 810.666667 512 810.666667Z"  horiz-adv-x="1024" />
      
      <glyph glyph-name="gongzuotai" unicode="&#58891;" d="M1006.933333 563.2l-482.133333-277.333333c-8.533333-4.266667-21.333333-4.266667-29.866667 0L17.066667 563.2c-21.333333 12.8-21.333333 42.666667 0 51.2L499.2 891.733333c8.533333 4.266667 21.333333 4.266667 29.866667 0l482.133333-277.333333c17.066667-8.533333 17.066667-38.4-4.266667-51.2zM989.866667 456.533333l-29.866667 12.8-85.333333-51.2 46.933333-25.6-409.6-230.4-409.6 230.4 46.933333 25.6-85.333333 55.466667-29.866667-17.066667c-21.333333-12.8-34.133333-38.4-34.133333-64s12.8-46.933333 34.133333-59.733333L477.866667 85.333333c12.8-4.266667 21.333333-8.533333 34.133333-8.533333 12.8 0 25.6 4.266667 34.133333 8.533333l439.466667 247.466667c21.333333 12.8 34.133333 34.133333 34.133333 59.733333s-8.533333 51.2-29.866666 64zM989.866667 251.733333l-34.133334 21.333334-89.6-46.933334 59.733334-34.133333L512-42.666667l-409.6 230.4 46.933333 25.6-85.333333 51.2-25.6-17.066666c-25.6-8.533333-38.4-34.133333-38.4-59.733334s12.8-46.933333 34.133333-59.733333l439.466667-247.466667c12.8-4.266667 21.333333-8.533333 34.133333-8.533333s25.6 4.266667 34.133334 8.533333L989.866667 128c21.333333 12.8 34.133333 34.133333 34.133333 59.733333s-12.8 51.2-34.133333 64z"  horiz-adv-x="1024" />
      
      <glyph glyph-name="caozuochenggong" unicode="&#58971;" d="M512 832C264.576 832 64 631.424 64 384c0-247.424 200.576-448 448-448 247.424 0 448 200.576 448 448C960 631.424 759.424 832 512 832L512 832zM792.96 531.8399999999999l-360.192-360.192c-2.944-2.944-6.656-4.608-10.496-5.12-6.656-1.984-14.144-0.384-19.392 4.864L216.96 357.312c-7.616 7.616-7.616 19.968 0 27.52l23.104 23.104c7.616 7.616 19.968 7.616 27.52 0L417.664 257.91999999999996l324.608 324.608c7.36 7.36 19.584 7.04 27.328-0.704l22.656-22.656C800 551.424 800.32 539.2 792.96 531.8399999999999L792.96 531.8399999999999z"  horiz-adv-x="1024" />
      
      <glyph glyph-name="shibai" unicode="&#59064;" d="M511.997952 831.99488c-247.409664 0-447.997952-200.574976-447.997952-448 0-247.41888 200.588288-447.988736 447.997952-447.988736 247.42912 0 448.002048 200.57088 448.002048 447.988736 0 247.425024-200.572928 448-448.002048 448z m205.896704-653.888512c-8.745984-8.748032-22.929408-8.748032-31.684608 0L511.997952 352.323584 337.787904 178.10636799999997c-8.747008-8.748032-22.929408-8.748032-31.67744 0-8.753152 8.747008-8.753152 22.92736 0 31.67744l174.214144 174.215168-174.214144 174.219264c-8.753152 8.73984-8.753152 22.924288 0 31.675392 8.749056 8.741888 22.931456 8.741888 31.67744 0l174.214144-174.216192 158.379008 158.380032c8.745984 8.741888 22.929408 8.741888 31.666176 0 8.749056-8.751104 8.749056-22.935552 0-31.67744L543.676416 384.003072l174.21824-174.219264c8.748032-8.75008 8.748032-22.930432 0-31.67744z"  horiz-adv-x="1024" />
      
      <glyph glyph-name="chenggong" unicode="&#59315;" d="M513.3 383.1m-423 0a423 423 0 1 1 846 0 423 423 0 1 1-846 0ZM786.3 567.1c-7.7 7.7-19.4 7.7-27.1 0L443.6 288.20000000000005c-7.7-5.8-17.4-5.8-25.2 0l-151 116.2c-7.7 7.7-19.4 7.7-27.1 0-7.7-7.7-7.7-19.4 0-27.1l178.1-178.1c7.7-7.7 19.4-7.7 27.1 0L786.3 540c7.7 7.7 7.7 21.3 0 27.1z m0 0"  horiz-adv-x="1024" />
      
      <glyph glyph-name="shibai1" unicode="&#58955;" d="M512 832a448 448 0 1 1 0-896A448 448 0 0 1 512 832zM536.384 380.99199999999996l131.264 156.48a3.968 3.968 0 0 1-3.072 6.528h-39.872a8.128 8.128 0 0 1-6.144-2.88L510.336 412.16 402.048 541.12a8 8 0 0 1-6.144 2.88h-39.872a3.968 3.968 0 0 1-3.072-6.528l131.2-156.48-131.2-156.416a3.968 3.968 0 0 1 3.072-6.592h39.872a8.128 8.128 0 0 1 6.144 2.88l108.288 129.024 108.16-129.024a8 8 0 0 1 6.208-2.88h39.872a3.968 3.968 0 0 1 3.072 6.592l-131.2 156.416z"  horiz-adv-x="1024" />
      
      <glyph glyph-name="download" unicode="&#59343;" d="M213.333333 42.666667 810.666667 42.666667 810.666667 128 213.333333 128M810.666667 512 640 512 640 768 384 768 384 512 213.333333 512 512 213.333333 810.666667 512Z"  horiz-adv-x="1024" />
      
      <glyph glyph-name="upload" unicode="&#59659;" d="M384 213.333333v256H213.333333l298.666667 298.666667 298.666667-298.666667h-170.666667v-256H384m-170.666667-170.666666v85.333333h597.333334v-85.333333H213.333333z"  horiz-adv-x="1024" />
      
      <glyph glyph-name="liangyi" unicode="&#58896;" d="M1003.72243-128c-48.915784 0-97.841799 18.624111-135.084905 55.872332l-404.07824 404.129391c-26.905472 26.910587-26.905472 70.537349 0 97.453051 26.905472 26.905472 70.537349 26.905472 97.437705 0l404.078241-404.134507c20.757111-20.762226 54.537289-20.762226 75.294399 0l317.750551 317.791472c22.521824 22.532054 22.521824 59.197153 0 81.729207l-317.750551 317.791472c-20.757111 20.757111-54.537289 20.757111-75.294399 0l-160.48142-160.50188c-26.905472-26.905472-70.532234-26.905472-97.44282 0-26.905472 26.905472-26.905472 70.542464 0 97.447935l160.486534 160.50188c74.491328 74.496443 195.678482 74.496443 270.16981 0l317.750552-317.786357c76.26627-76.26627 76.26627-200.369037 0-276.635307l-317.750552-317.786357c-37.237991-37.248221-86.164006-55.872332-135.084905-55.872332zM510.027486-128c-48.915784 0-97.841799 18.624111-135.084905 55.872332l-317.750551 317.786357c-76.25604 76.26627-76.25604 200.369037 0 276.635307l317.750551 317.781242c74.491328 74.501558 195.683598 74.501558 270.16981 0l413.014335-413.060371c26.910587-26.905472 26.910587-70.537349 0-97.447935-26.905472-26.910587-70.532234-26.910587-97.44282 0L547.674686 742.632418c-20.757111 20.757111-54.537289 20.757111-75.2944 0L154.629735 424.840946c-22.521824-22.532054-22.521824-59.197153 0-81.729207l317.750551-317.791472c20.757111-20.762226 54.537289-20.762226 75.2944 0l160.48142 160.506996c26.905472 26.905472 70.532234 26.905472 97.44282 0 26.905472-26.910587 26.905472-70.547579 0-97.453051l-160.486535-160.50188c-37.243106-37.248221-86.164006-55.872332-135.084905-55.872332zM868.637525-72.127668l-404.07824 404.129391c-26.905472 26.910587-26.905472 70.537349 0 97.453051 26.905472 26.905472 70.537349 26.905472 97.437705 0l404.078241-404.134507c20.757111-20.762226 54.537289-20.762226 75.294399 0l317.750551 317.791472c22.521824 22.532054 22.521824 59.197153 0 81.729207l-317.750551 317.791472c-20.757111 20.757111-54.537289 20.757111-75.294399 0L861.046704 637.588546 764.401841 735.829323l104.235684 104.245915c74.491328 74.501558 195.678482 74.501558 270.16981 0l317.750552-317.781242c76.26627-76.26627 76.26627-200.369037 0-276.635307l-317.750552-317.786357c-37.237991-37.248221-86.164006-55.872332-135.084905-55.872332-48.915784 0-97.841799 18.624111-135.084905 55.872332z"  horiz-adv-x="1513" />
      
      </font>
</defs>
</svg>
